<svg width="42" height="4850" viewBox="0 0 42 4850" fill="none" xmlns="http://www.w3.org/2000/svg">
  <path d="M20.6471 38.4367V838.4367M20.6471 875.791V1675.791M20.6471 1713.082V2513.082M20.6471 2550.437V3350.437M20.6471 3387.082V4187.082M39 21.0727C39 31.054 30.9411 39.1454 21 39.1454C11.0589 39.1454 3 31.054 3 21.0727C3 11.0914 11.0589 3 21 3C30.9411 3 39 11.0914 39 21.0727ZM39 830.427C39 840.409 30.9411 848.5 21 848.5C11.0589 848.5 3 840.409 3 830.427C3 820.446 11.0589 812.355 21 812.355C30.9411 812.355 39 820.446 39 830.427ZM39 1661.718C39 1671.699 30.9411 1679.791 21 1679.791C11.0589 1679.791 3 1671.699 3 1661.718C3 1651.737 11.0589 1643.645 21 1643.645C30.9411 1643.645 39 1651.737 39 1661.718ZM39 2492.073C39 2502.054 30.9411 2510.145 21 2510.145C11.0589 2510.145 3 2502.054 3 2492.073C3 2482.091 11.0589 2474 21 2474C30.9411 2474 39 2482.091 39 2492.073ZM39 3323.718C39 3333.699 30.9411 3341.791 21 3341.791C11.0589 3341.791 3 3333.699 3 3323.718C3 3313.737 11.0589 3305.645 21 3305.645C30.9411 3305.645 39 3313.737 39 3323.718ZM39 4167.64C39 4177.62 30.9411 4185.71 21 4185.71C11.0589 4185.71 3 4177.62 3 4167.64C3 4157.65 11.0589 4149.56 21 4149.56C30.9411 4149.56 39 4157.65 39 4167.64Z" stroke="url(#paint0_linear_2_1133)" stroke-width="6"/>
  <defs>
    <linearGradient id="paint0_linear_2_1133" x1="8.91428" y1="3.00043" x2="44.0996" y2="3.29128" gradientUnits="userSpaceOnUse">
      <stop stop-color="#54D6FF"/>
      <stop offset="0.546875" stop-color="#C275FF"/>
      <stop offset="1" stop-color="#F36AFF"/>
    </linearGradient>
  </defs>
</svg>
