<svg width="290" height="84" viewBox="0 0 290 84" fill="none" xmlns="http://www.w3.org/2000/svg">
<g filter="url(#filter0_d_40_175)">
<path fill-rule="evenodd" clip-rule="evenodd" d="M37.814 21.0427C37.5757 21.0927 36.7606 21.5838 36.0025 22.1339C32.9824 24.3258 29.8623 25.3361 25.2743 25.6081C22.3905 25.7791 22.1678 25.8261 21.6022 26.3839L21 26.9777L21.0514 30.6742C21.1886 40.5792 22.1222 47.2127 23.8718 50.7181C25.26 53.4994 26.5817 54.6146 32.1443 57.6985C33.8543 58.6464 35.7043 59.7451 36.2554 60.1397C37.8343 61.2709 38.5791 61.2822 40.1509 60.1994C40.8772 59.6993 43.1813 58.3386 45.2713 57.1759C48.1675 55.5645 49.4157 54.7234 50.52 53.6394C53.7796 50.4397 54.8749 45.9174 55.4201 33.4105C55.6897 27.219 55.619 26.5615 54.626 26.0377C54.3593 25.8969 52.7933 25.7019 51.1455 25.604C46.6729 25.3384 43.8524 24.4111 40.5502 22.12C39.103 21.1158 38.5335 20.8917 37.814 21.0427ZM42.7629 27.8958C45.19 28.8188 46.8037 29.2184 49.3591 29.5296L51.4893 29.7894L51.487 31.1718C51.4829 33.7445 51.0264 40.2593 50.6662 42.885C50.2761 45.7295 49.5035 48.3019 48.6293 49.6673C47.7829 50.9889 46.5407 51.9194 43.0469 53.8483C41.2938 54.8164 39.4966 55.8218 39.0533 56.0829L38.2472 56.5574L35.7139 55.0914C34.3206 54.2852 32.5071 53.2603 31.6837 52.8137C27.8433 50.7312 26.646 48.5784 25.8111 42.2559C25.5422 40.2189 25.0118 32.394 25.0065 30.3856C25.0051 29.8221 25.068 29.7984 27.2795 29.5262C30.938 29.0762 34.7366 27.8018 37.0888 26.2355L38.2304 25.4753L39.5873 26.3399C40.3337 26.8153 41.7627 27.5155 42.7629 27.8958ZM222.37 40.047V51.7398H224.788H227.206V40.047V28.3542H224.788H222.37V40.047ZM230.025 39.9902L230.085 51.6262L232.561 51.6907L235.037 51.7552V40.0547V28.3542H232.501H229.966L230.025 39.9902ZM85.3431 31.7599V33.8033H88.9127H92.4823V42.7715V51.7398H95.0156H97.5489V42.7715V33.8033H101.118H104.688V31.7599V29.7165H95.0156H85.3431V31.7599ZM170.573 33.0583C171.202 34.904 172.858 39.8626 174.254 44.077L176.791 51.7398H179.527H182.263L184.754 44.3608C186.124 40.3024 187.301 36.9819 187.369 36.9819C187.438 36.9819 188.519 40.1235 189.771 43.9635C191.023 47.8035 192.14 51.1272 192.252 51.3495C192.433 51.7087 192.756 51.7468 195.14 51.69L197.824 51.6262L201.457 40.7281C203.454 34.7342 205.091 29.801 205.093 29.7655C205.096 29.7301 203.997 29.7301 202.652 29.7655L200.206 29.83L197.634 37.5495C196.22 41.7952 195.003 45.1668 194.93 45.042C194.856 44.9171 194.581 44.1508 194.318 43.3391C194.055 42.5275 192.947 39.1302 191.855 35.7899L189.871 29.7165H187.484H185.098L182.496 37.4237C181.065 41.6626 179.856 45.0937 179.81 45.0483C179.764 45.0029 178.617 41.5602 177.261 37.3978L174.796 29.83L172.113 29.7662L169.43 29.7024L170.573 33.0583ZM152.59 33.1222V35.1655H151.208C150.204 35.1655 149.826 35.2491 149.826 35.4709C149.826 35.7125 149.563 35.6884 148.562 35.3554C146.81 34.7723 143.977 34.4172 142.46 34.5907C137.956 35.1061 135.677 36.9442 135.706 40.0372C135.736 43.1107 137.246 44.2355 142.457 45.0644C145.273 45.5126 145.776 45.7503 145.867 46.6755C145.922 47.2352 145.812 47.4795 145.378 47.7599C144.066 48.6075 140.647 48.3904 138.147 47.3004C137.438 46.9916 136.834 46.7657 136.804 46.7986C136.774 46.8315 136.423 47.5717 136.024 48.4435C135.186 50.2731 135.183 50.2676 137.315 51.0539C140.456 52.2122 145.144 52.1557 147.692 50.9288C151.468 49.1092 151.753 44.4378 148.196 42.6487C147.719 42.4087 146.002 41.9521 144.382 41.6343C142.762 41.3164 141.193 40.8995 140.896 40.7077C140.177 40.2436 140.293 39.3348 141.15 38.7072C142.059 38.0417 144.964 38.0767 147.032 38.7778C147.838 39.0514 148.532 39.2419 148.573 39.2013C148.614 39.1606 148.912 38.568 149.235 37.8844L149.822 36.6413L149.824 37.7198L149.826 38.7983H151.208H152.59V42.9572C152.59 47.7163 152.832 48.9276 154.024 50.1366C155.24 51.3708 156.543 51.8358 158.808 51.8447C160.872 51.8526 163.079 51.2602 162.885 50.7503C162.83 50.6077 162.548 49.8449 162.257 49.0552C161.79 47.7878 161.671 47.6378 161.247 47.7772C160.982 47.8641 160.342 47.9829 159.823 48.0412C159.057 48.1273 158.756 48.0412 158.211 47.5796L157.541 47.012L157.469 42.9052L157.397 38.7983H159.6H161.802V36.9819V35.1655H159.614H157.426V33.1222V31.0788H155.008H152.59V33.1222ZM256.685 33.1222V35.1655H255.303H253.921V36.9706V38.7755L255.245 38.8437L256.569 38.9118L256.685 43.5662C256.798 48.1511 256.809 48.2365 257.439 49.2929C258.63 51.2907 261.392 52.2808 264.402 51.789C265.247 51.651 266.177 51.3838 266.469 51.1951L267 50.852L266.391 49.2455C265.867 47.8657 265.716 47.6568 265.321 47.7681C263.452 48.2937 262.239 48.0508 261.781 47.0593C261.62 46.7116 261.521 45.0245 261.521 42.6473V38.7983H263.709H265.896V36.9819V35.1655H263.709H261.521V33.1222V31.0788H259.103H256.685V33.1222ZM113.7 34.7292C112.334 34.9937 110.773 35.7672 110.229 36.4481L109.781 37.0101L109.71 35.9175L109.639 34.825H107.337H105.034V43.2256V51.6262L107.509 51.6907L109.985 51.7552V46.9017C109.985 42.2732 110.01 42.0025 110.515 41.0596C111.21 39.7641 112.578 39.0253 114.282 39.0253H115.512V36.7549C115.512 34.2195 115.633 34.3545 113.7 34.7292ZM209.358 34.6978C207.051 35.0679 204.671 35.9227 204.3 36.5151C204.224 36.6366 204.527 37.4523 204.974 38.3276L205.787 39.9192L206.536 39.4898C208.488 38.3716 211.459 38.0626 213.035 38.8137C213.838 39.1965 214.77 40.4702 214.77 41.1849C214.77 41.6765 214.692 41.6908 211.373 41.8043C208.667 41.8972 207.716 42.0189 206.695 42.4035C204.587 43.1977 203.481 44.7523 203.491 46.9078C203.505 49.9572 205.862 51.8297 209.704 51.8447C212.007 51.8535 213.544 51.3679 214.405 50.3593L214.974 49.6927L215.045 50.6595L215.116 51.6262L217.361 51.6912L219.607 51.7561V45.9996C219.607 39.115 219.469 38.4136 217.791 36.7594C217.085 36.0635 216.241 35.5154 215.397 35.2039C213.919 34.6588 211.084 34.4213 209.358 34.6978ZM243.737 34.7183C241.019 35.1699 238.709 36.8429 237.492 39.2414C235.749 42.6748 236.309 46.649 238.893 49.1969C241.745 52.0079 247.456 52.7583 251.165 50.8096C251.907 50.4197 252.69 49.9087 252.905 49.6737C253.279 49.2666 253.246 49.1914 252.189 48.0526C251.58 47.3957 251.006 46.7727 250.915 46.6681C250.823 46.5634 250.348 46.7362 249.859 47.0522C247.894 48.3212 245.154 48.3895 243.277 47.2161C242.361 46.6435 241.485 45.425 241.485 44.7239C241.485 44.5486 243.394 44.4744 247.906 44.4744H254.328L254.446 43.8636C254.62 42.97 254.211 40.4718 253.707 39.3504C253.159 38.1271 251.593 36.4388 250.333 35.7107C249.323 35.1272 246.699 34.476 245.515 34.5151C245.135 34.5276 244.335 34.6191 243.737 34.7183ZM116.825 34.8554C116.58 35.0963 116.641 44.1442 116.899 45.9013C117.482 49.8796 119.926 51.8783 124.148 51.8297C126.197 51.8063 127.247 51.4646 128.659 50.3616L129.56 49.6582V50.699V51.7398H131.866H134.172L134.111 43.2824L134.051 34.825H131.633H129.215L129.1 40.047C128.97 45.9159 128.877 46.2741 127.247 47.1775C126.214 47.7495 124.324 47.8128 123.335 47.3085C121.987 46.6215 121.857 46.0419 121.73 40.1605L121.615 34.825L119.3 34.7607C118.027 34.7255 116.913 34.768 116.825 34.8554ZM246.832 38.3542C247.852 38.6334 248.972 39.5139 249.438 40.4032C250.151 41.7623 250.187 41.7498 245.527 41.7498H241.279L241.554 40.9715C241.938 39.8901 242.724 39.0671 243.859 38.5592C244.96 38.066 245.615 38.0211 246.832 38.3542ZM214.77 45.5789C214.77 47.7606 212.583 49.1446 210.049 48.5666C208.898 48.3039 208.322 47.6246 208.322 46.5277C208.322 45.0004 209.334 44.549 212.87 44.5005L214.77 44.4744V45.5789Z" fill="white"/>
</g>
<defs>
<filter id="filter0_d_40_175" x="0.264" y="0.264" width="289.2" height="83.2" filterUnits="userSpaceOnUse" color-interpolation-filters="sRGB">
<feFlood flood-opacity="0" result="BackgroundImageFix"/>
<feColorMatrix in="SourceAlpha" type="matrix" values="0 0 0 0 0 0 0 0 0 0 0 0 0 0 0 0 0 0 127 0" result="hardAlpha"/>
<feOffset dx="0.864" dy="0.864"/>
<feGaussianBlur stdDeviation="10.8"/>
<feComposite in2="hardAlpha" operator="out"/>
<feColorMatrix type="matrix" values="0 0 0 0 0.541667 0 0 0 0 0.78 0 0 0 0 1 0 0 0 1 0"/>
<feBlend mode="normal" in2="BackgroundImageFix" result="effect1_dropShadow_40_175"/>
<feBlend mode="normal" in="SourceGraphic" in2="effect1_dropShadow_40_175" result="shape"/>
</filter>
</defs>
</svg>
