<svg width="208" height="87" viewBox="0 0 208 87" fill="none" xmlns="http://www.w3.org/2000/svg">
<g filter="url(#filter0_d_40_180)">
<path fill-rule="evenodd" clip-rule="evenodd" d="M38.9711 21.6675C38.8101 21.7583 38.0803 22.1892 37.3492 22.6254C36.6183 23.0616 35.9549 23.4185 35.875 23.4185C35.7952 23.4185 35.1892 23.7675 34.5282 24.194C33.8671 24.6205 33.2551 24.9695 33.168 24.9695C33.081 24.9695 32.6835 25.1897 32.2844 25.4588C31.8856 25.7281 31.0526 26.2211 30.4333 26.5547C29.8141 26.8881 29.0579 27.3338 28.753 27.545C28.2165 27.9162 28.2103 27.9397 28.5578 28.2696C28.7553 28.4571 29.488 28.9117 30.186 29.28C30.8839 29.6482 31.7185 30.1044 32.0406 30.2938C32.6927 30.6768 32.3045 30.8331 35.7011 28.8214C36.2649 28.4873 37.2088 27.9534 37.799 27.6347C38.3892 27.316 39.0793 26.8932 39.3329 26.695C39.8434 26.2963 39.926 26.3207 41.3929 27.3036C41.8638 27.6192 42.3253 27.8774 42.4184 27.8774C42.5117 27.8774 43.0262 28.1675 43.5615 28.522C44.097 28.8764 45.1658 29.5022 45.9368 29.9124L47.3383 30.6584L47.9866 30.1742C48.3431 29.908 49.1455 29.4357 49.7696 29.1248C50.3938 28.8138 51.0378 28.4133 51.2006 28.2345C51.4714 27.9375 51.4 27.8476 50.3741 27.196C49.7566 26.8038 49.1125 26.4343 48.9431 26.3752C48.7734 26.316 48.503 26.1598 48.342 26.028C48.1809 25.8961 47.5659 25.5448 46.9754 25.2475C46.3848 24.9499 45.6556 24.5387 45.3552 24.3334C44.8574 23.9933 43.3655 23.1421 41.1571 21.938C40.301 21.4712 39.4967 21.3717 38.9711 21.6675ZM120.585 27.2082C120.253 27.9065 119.862 28.8006 119.716 29.1953C119.402 30.0443 118.477 32.1754 117.426 34.4719C117.011 35.38 116.671 36.2003 116.671 36.2949C116.671 36.3895 116.403 37.0296 116.076 37.7172C115.749 38.4049 115.264 39.5405 114.998 40.241C114.733 40.9412 114.447 41.6085 114.363 41.7235C114.278 41.8386 114.106 42.1725 113.98 42.4658L113.751 42.9989H115.881C117.923 42.9989 118.016 42.9809 118.136 42.5627C118.205 42.3229 118.535 41.4939 118.868 40.721L119.475 39.3155H122.849C126.723 39.3155 126.292 39.0952 127.208 41.5449L127.715 42.902L129.807 42.957C132.264 43.0216 132.217 43.0861 131.221 41.0151C130.847 40.2402 130.329 39.0828 130.069 38.4431C129.129 36.1351 128.528 34.7344 127.876 33.3369C127.512 32.5542 127.213 31.8365 127.213 31.7417C127.213 31.6469 126.906 30.9172 126.53 30.1201C126.154 29.3231 125.847 28.5771 125.847 28.4625C125.847 28.3479 125.582 27.7332 125.258 27.0964L124.67 25.9388H122.93H121.189L120.585 27.2082ZM159.399 26.2063C157.203 26.7077 155.177 28.3406 153.958 30.5915L153.276 31.8517V34.6627V37.4738L153.958 38.7339C155.628 41.8177 158.312 43.3731 161.963 43.3731C163.364 43.3731 165.307 43.0134 166.063 42.6145C167.114 42.06 168.796 40.6297 168.796 40.2912C168.796 40.065 166.677 37.9584 166.449 37.9584C166.33 37.9584 165.953 38.1666 165.611 38.421C163.581 39.9318 161.644 40.2051 159.864 39.2321C158.175 38.3087 157.278 36.7256 157.278 34.6672C157.278 32.4431 158.303 30.8242 160.304 29.8886C161.897 29.1436 163.08 29.3186 165.065 30.5929C165.729 31.0186 166.334 31.3612 166.411 31.354C166.724 31.3249 168.624 28.8173 168.565 28.512C168.468 28.0131 166.677 26.748 165.575 26.3998C164.283 25.9915 160.816 25.8829 159.399 26.2063ZM69.0359 34.5452V42.9989L74.4534 42.9881C80.5638 42.9758 80.8256 42.9281 82.3612 41.5443C83.0978 40.8807 83.2577 40.5956 83.4762 39.5578C83.6806 38.5867 83.6839 38.1246 83.4927 37.2303C83.1872 35.8005 83.1849 35.7976 80.9564 34.1362C80.9093 34.1011 81.0616 33.9394 81.2951 33.7769C82.1049 33.2138 82.7017 31.9141 82.7017 30.7137C82.7017 28.8605 81.8913 27.5128 80.2614 26.6559C79.5345 26.2738 79.1183 26.2399 74.2582 26.1683L69.0359 26.0914V34.5452ZM87.5823 34.5658V42.9989H89.5346H91.4869V34.5658V26.1326H89.5346H87.5823V34.5658ZM96.1723 34.5658V42.9989H98.1245H100.077V37.9578V32.9168L100.719 33.6443C101.073 34.0445 101.49 34.5588 101.647 34.7872C101.803 35.0155 102.722 36.221 103.688 37.466C106.338 40.88 106.367 40.9164 107.172 41.9945L107.923 42.9989H109.661H111.4V34.5658V26.1326H109.451H107.502L107.45 31.0277L107.398 35.9228L106.56 34.8566C106.099 34.2701 105.44 33.4123 105.096 32.9501C104.751 32.4881 104.202 31.7902 103.876 31.3992C103.549 31.0084 103.154 30.5002 102.997 30.2701C102.841 30.04 102.073 29.0148 101.291 27.9922L99.8702 26.1326H98.0213H96.1723V34.5658ZM134.437 34.5658V42.9989H136.389H138.341V37.926V32.8534L138.921 33.4187C139.24 33.7296 139.504 34.084 139.507 34.206C139.51 34.3281 139.757 34.6879 140.056 35.0057C140.355 35.3234 140.84 35.9215 141.134 36.3348C141.875 37.3751 142.541 38.2512 143.905 39.9816C144.549 40.7985 145.324 41.8117 145.626 42.2329L146.176 42.9989H148.018H149.859V34.5658V26.1326H147.809H145.76V31.1035V36.0744L144.539 34.4454C143.868 33.5495 143.169 32.643 142.984 32.4309C142.597 31.9843 142.045 31.2555 140.311 28.8991C138.187 26.0119 138.364 26.1326 136.255 26.1326H134.437V34.5658ZM171.529 34.6627V43.1928H178.167H184.805V41.448V39.7032H180.217H175.629V38.0553V36.4075H179.534H183.438V34.5658V32.7241H179.534H175.629V31.1731V29.6222H180.119H184.61V27.8774V26.1326H178.069H171.529V34.6627ZM77.1079 29.6106C78.5895 29.952 79.3356 31.4046 78.4419 32.2078C77.9714 32.6306 76.367 32.9179 74.4757 32.9179H72.9404V31.1731V29.4284L74.6486 29.433C75.5883 29.4355 76.6948 29.5154 77.1079 29.6106ZM24.5248 29.9615C24.2624 30.148 23.3862 30.6544 22.5778 31.0865L21.108 31.872L21.0541 34.5861L21 37.3002L21.7093 37.6777C23.1055 38.4212 23.8513 38.8422 24.5106 39.2594C24.8787 39.4925 25.2522 39.6388 25.3403 39.5847C25.4285 39.5307 25.5005 38.3971 25.5005 37.0655V34.6447L26.1067 34.3143C26.6414 34.0231 28.5925 32.8607 29.4051 32.3491C29.6569 32.1907 29.6432 32.1231 29.3074 31.8664C29.0927 31.7022 28.5217 31.3738 28.0385 31.1367C27.5553 30.8994 26.7959 30.4617 26.3507 30.1637C25.4047 29.5305 25.1675 29.5043 24.5248 29.9615ZM38.6783 30.2414C38.1414 30.5778 37.2629 31.0824 36.726 31.3625C36.1892 31.6427 35.7499 31.9862 35.7499 32.1258C35.7499 32.2652 36.3209 32.7118 37.0189 33.1182C37.7168 33.5245 38.5795 34.0383 38.9358 34.2599C39.6981 34.7337 40.1991 34.7715 40.5267 34.3795C40.6569 34.2236 40.9531 34.0394 41.185 33.9702C41.6832 33.8215 44.2422 32.2933 44.2422 32.1444C44.2422 32.0116 43.7389 31.703 42.1318 30.8498C41.4136 30.4684 40.6872 30.0363 40.5175 29.8894C40.0693 29.5009 39.768 29.5584 38.6783 30.2414ZM53.4073 30.167C52.93 30.4667 52.2758 30.8461 51.9536 31.0101C50.957 31.5178 50.1015 32.0411 50.1017 32.1425C50.1021 32.2522 51.1259 32.8774 53.011 33.9187L54.2963 34.6288L54.3508 37.1659C54.3807 38.5615 54.4558 39.7032 54.5177 39.7032C54.5796 39.7032 55.0206 39.4415 55.498 39.1216C55.9753 38.8017 56.4157 38.54 56.4768 38.54C56.5379 38.54 57.1047 38.2283 57.736 37.8475L58.8841 37.1548V34.5788V32.0027L57.664 31.3629C56.993 31.0111 56.0766 30.4756 55.6278 30.1728C54.6179 29.4916 54.484 29.4912 53.4073 30.167ZM123.942 33.4995C124.056 33.7661 124.299 34.3987 124.48 34.905L124.811 35.8259H122.884H120.959L121.092 35.2928C121.166 34.9995 121.563 34.0313 121.974 33.1409C122.386 32.2506 122.728 31.3782 122.734 31.2022C122.744 30.925 123.241 31.8701 123.942 33.4995ZM31.2804 34.4902C30.755 34.8178 29.8765 35.3263 29.3281 35.6202L28.3313 36.1547L28.2772 38.7571L28.2234 41.3594L29.5462 42.124C30.2738 42.5445 31.1767 43.0561 31.5525 43.2606C31.9283 43.4653 32.5417 43.8391 32.9156 44.0913C33.2895 44.3436 33.6801 44.5498 33.7836 44.5498C33.8872 44.5498 34.306 44.7798 34.7144 45.0609L35.4571 45.5719V49.6935V53.815L36.4016 54.4168C36.9209 54.7477 37.3964 55.0185 37.4581 55.0185C37.52 55.0185 38.0374 55.3239 38.608 55.6971C39.8032 56.4787 39.992 56.5072 40.6981 56.0125C40.9831 55.8126 41.7433 55.3787 42.3876 55.048C44.4002 54.0149 44.2412 54.4658 44.2494 49.7629L44.2565 45.6161L45.1043 45.083C45.5707 44.7896 46.011 44.5498 46.0828 44.5498C46.1546 44.5498 46.7425 44.2009 47.3891 43.7744C48.0356 43.3479 48.6192 42.9989 48.6857 42.9989C48.7521 42.9989 49.4048 42.6399 50.1361 42.2012L51.4656 41.4036V38.8227C51.4656 36.2654 51.4609 36.2381 50.9511 35.8401C50.6683 35.619 50.3586 35.4382 50.2632 35.4382C50.1675 35.4382 49.533 35.0892 48.8529 34.6627C48.1729 34.2362 47.4687 33.8872 47.2881 33.8872C46.9102 33.8872 46.1441 34.2878 43.9494 35.6324C43.0904 36.1588 42.0801 36.733 41.7043 36.9084C41.3285 37.0837 40.7752 37.4007 40.4749 37.6126L39.9289 37.9978L39.1613 37.4935C38.7392 37.2161 38.3351 36.9891 38.2634 36.9891C38.1918 36.9891 37.6715 36.6849 37.1077 36.3133C36.5437 35.9414 35.8756 35.5589 35.6232 35.463C35.3708 35.367 34.683 34.9733 34.095 34.5879C33.5067 34.2025 32.8479 33.889 32.6308 33.8909C32.4135 33.8929 31.8059 34.1627 31.2804 34.4902ZM78.7294 36.6157C79.4164 36.9461 79.5888 37.1397 79.695 37.7015C79.8073 38.2963 79.7442 38.4644 79.2095 38.9958L78.5951 39.6063L75.7677 39.673L72.9404 39.7396V37.9766V36.2136H75.4166C77.5235 36.2136 78.0178 36.2737 78.7294 36.6157ZM21.0566 47.2979L21.108 54.1171L22.7674 55.041C23.6801 55.5493 24.8661 56.1982 25.4029 56.4828C25.9398 56.7676 26.6426 57.1964 26.9647 57.4356C27.2869 57.6749 27.77 57.9387 28.0385 58.0217C28.3069 58.1047 28.5705 58.2357 28.6242 58.3129C28.6778 58.39 29.3367 58.7811 30.0883 59.1816C30.84 59.5823 31.688 60.0745 31.9731 60.2754C32.2581 60.4762 32.5437 60.6406 32.6075 60.6406C32.6716 60.6406 32.7239 59.4288 32.7239 57.9475V55.2545L32.189 55.1211C31.8948 55.0478 31.6093 54.9251 31.5545 54.8485C31.4518 54.7047 29.8763 53.7559 29.0146 53.3187C28.7462 53.1824 27.8677 52.6939 27.0623 52.2329L25.5982 51.3946L25.5456 47.1341L25.4933 42.8735L24.8623 42.5458C23.9922 42.0938 22.7078 41.3691 21.9181 40.8844C21.5546 40.6613 21.2005 40.4787 21.1312 40.4787C21.0621 40.4787 21.0285 43.5474 21.0566 47.2979ZM57.829 40.9633C57.4334 41.2299 57.0537 41.448 56.9854 41.448C56.9169 41.448 56.3085 41.7752 55.6336 42.175L54.4064 42.902L54.3514 47.1375L54.2963 51.3731L53.0797 52.016C52.4105 52.3694 51.6299 52.8407 51.3451 53.0632C51.0603 53.2856 50.7497 53.4676 50.6548 53.4676C50.5599 53.4676 49.9338 53.7949 49.2634 54.1946C48.593 54.5946 47.8039 55.0455 47.5099 55.1967L46.9754 55.4718V57.9478C46.9754 59.3097 47.0523 60.4712 47.1464 60.5288C47.2405 60.5865 47.7016 60.3752 48.1713 60.059C48.641 59.743 49.0899 59.4829 49.1687 59.4809C49.2476 59.479 49.7661 59.2 50.321 58.8611C51.3055 58.2596 51.7114 58.0318 53.845 56.8839C54.4152 56.577 55.1315 56.1511 55.4363 55.9375C55.7412 55.7238 56.6197 55.219 57.3885 54.8158L58.7865 54.0824L58.8379 47.2806C58.8664 43.4944 58.8135 40.4787 58.7186 40.4787C58.6249 40.4787 58.2245 40.6968 57.829 40.9633ZM28.277 47.2155L28.3313 49.8811L29.2364 50.3658C29.734 50.6323 30.6233 51.1341 31.2123 51.4805C31.8015 51.8269 32.3824 52.1106 32.5037 52.1106C32.6558 52.1106 32.7239 51.3343 32.7239 49.5985V47.0864L31.7966 46.5633C31.2866 46.2754 30.3224 45.7047 29.654 45.2949C28.9853 44.8852 28.3899 44.5498 28.3305 44.5498C28.2712 44.5498 28.2472 45.7495 28.277 47.2155ZM50.3918 45.1677C49.855 45.5153 48.8886 46.0748 48.2443 46.4111L47.073 47.0226L47.0185 49.5665C46.9545 52.5565 46.9352 52.5378 48.8529 51.3351C49.533 50.9086 50.1576 50.5593 50.2405 50.5587C50.3237 50.5581 50.6366 50.3619 50.9361 50.1225L51.4802 49.6873L51.4242 47.1116L51.368 44.5359L50.3918 45.1677ZM136.62 48.1385C134.612 48.6943 133.61 49.5566 132.496 51.6874C131.741 53.1313 131.945 55.5778 132.963 57.3034C134.132 59.2834 135.964 60.167 138.58 60.0133C140.49 59.901 141.806 59.3931 142.426 58.5294L142.853 57.9331L142.305 57.2513C142.004 56.8764 141.691 56.5695 141.609 56.5695C141.528 56.5695 141.104 56.8267 140.667 57.1412C138.859 58.4412 137.285 58.4123 135.821 57.052C135.064 56.3485 134.875 56.0268 134.681 55.1097C133.85 51.175 137.63 48.7197 140.855 51.0996L141.514 51.5862L142.165 50.8305C142.524 50.415 142.82 50.0033 142.824 49.9158C142.837 49.6339 142.348 49.2638 141.161 48.6555C139.716 47.9155 138.093 47.7306 136.62 48.1385ZM70.2724 48.5212C69.154 49.0824 68.7811 49.5331 68.4621 50.7095C68.1343 51.9182 68.4559 53.0153 69.3654 53.7923C70.0677 54.3922 70.8411 54.6991 72.9724 55.2233C73.5071 55.3549 74.1051 55.6775 74.421 56.0047C74.8886 56.4894 74.9301 56.6245 74.7394 57.0402C74.0276 58.5915 72.1855 58.4748 69.5577 56.7118C69.2495 56.5049 69.1241 56.5633 68.6304 57.1437C67.8782 58.0283 67.9104 58.3842 68.7919 58.9284C71.3686 60.5195 75.1076 60.3814 76.5244 58.643C76.9958 58.0647 77.1301 57.6883 77.1981 56.7569C77.2707 55.7595 77.2137 55.4896 76.7983 54.8666C76.2317 54.0161 75.5922 53.6675 73.3309 52.9764C71.1965 52.324 70.7929 52.0629 70.7929 51.3351C70.7929 50.0975 72.7942 49.7915 74.7478 50.7308L75.6556 51.1672L76.2446 50.5242C76.5685 50.1706 76.8361 49.7466 76.8393 49.5822C76.8426 49.4027 76.3574 49.0568 75.6248 48.7162C74.6689 48.2718 74.0663 48.1346 72.8428 48.0821C71.469 48.0229 71.1596 48.0758 70.2724 48.5212ZM97.041 48.4756C96.9674 48.7156 96.6221 49.4818 96.2734 50.1785C95.9249 50.8753 95.5766 51.6604 95.4997 51.9233C95.3564 52.4128 94.2921 54.8284 93.1535 57.248C92.8023 57.9944 92.4524 58.8887 92.3759 59.2351L92.2367 59.8652H93.328H94.4195L94.893 58.8474C95.1532 58.2877 95.413 57.677 95.4702 57.4903C95.5628 57.1891 95.8701 57.1511 98.2192 57.1511H100.864L101.13 57.7811C101.277 58.1276 101.538 58.7384 101.71 59.1382L102.023 59.8652H103.297H104.572L104.303 59.2351C104.155 58.8887 103.809 58.1252 103.535 57.5388C101.878 53.9961 101.443 53.0235 101.443 52.862C101.443 52.7627 101.152 52.0951 100.796 51.3781C100.44 50.6614 99.9835 49.6169 99.7814 49.0572L99.414 48.0394H98.2944C97.303 48.0394 97.1593 48.0894 97.041 48.4756ZM160.294 49.5419C159.901 50.3681 159.467 51.3543 159.33 51.7331C159.192 52.1119 158.817 52.9407 158.497 53.5748C158.177 54.209 157.849 54.9458 157.768 55.2124C157.687 55.479 157.29 56.395 156.885 57.248C156.48 58.101 156.094 59.0389 156.026 59.332L155.904 59.8652H157.064H158.223L158.776 58.5104L159.328 57.1559L161.963 57.1582L164.599 57.1606L164.941 57.8424C165.128 58.2173 165.285 58.6731 165.288 58.8553C165.302 59.5951 165.763 59.8652 167.012 59.8652C167.671 59.8652 168.211 59.8105 168.211 59.7438C168.211 59.6769 167.96 59.1318 167.653 58.5322C167.347 57.9325 167.029 57.2238 166.948 56.9572C166.867 56.6906 166.471 55.7746 166.068 54.9216C165.666 54.0686 165.276 53.1811 165.203 52.9494C165.13 52.7177 164.766 51.9086 164.395 51.1511C164.024 50.3937 163.72 49.6919 163.72 49.5917C163.72 49.4916 163.572 49.1014 163.391 48.7245C163.076 48.0685 163.019 48.0394 162.035 48.0394H161.008L160.294 49.5419ZM78.9924 54.0492V59.8652H80.1638H81.3351L81.3433 55.9394C81.3513 52.1375 81.3621 52.032 81.685 52.5952C82.2222 53.5324 83.9021 56.0398 84.3732 56.6078C84.7918 57.1127 84.8183 57.1185 85.1324 56.774C85.3113 56.5774 86.1113 55.426 86.9098 54.2152L88.3619 52.0136L88.3627 55.9394L88.3632 59.8652H89.5346H90.7059V54.0492V48.2333H89.4565H88.2071L87.1931 49.8327C85.7433 52.1195 84.9614 53.2637 84.8492 53.2637C84.7289 53.2637 83.5006 51.479 83.1396 50.7799C82.9943 50.4988 82.633 49.9635 82.3362 49.5903C82.0397 49.2171 81.7396 48.7592 81.6697 48.5725C81.5665 48.2969 81.3033 48.2333 80.2674 48.2333H78.9924V54.0492ZM105.934 54.0492V59.8652H107.007H108.081V57.9265V55.9879L109.301 55.9908L110.521 55.9937L111.4 57.2639C113.164 59.8138 113.228 59.8652 114.641 59.8652C115.328 59.8652 115.89 59.8119 115.89 59.7467C115.89 59.6818 115.48 59.0492 114.978 58.3412C113.439 56.1687 113.157 55.745 113.157 55.6058C113.157 55.5321 113.399 55.3518 113.694 55.205C115.003 54.5544 115.528 53.612 115.535 51.8985C115.541 50.2855 114.986 49.3397 113.673 48.723C112.685 48.2585 112.458 48.2333 109.282 48.2333H105.934V54.0492ZM116.671 49.2995V50.3658H118.526H120.38V55.1155V59.8652H121.552H122.723V55.1155V50.3658H124.48H126.237V49.2995V48.2333H121.454H116.671V49.2995ZM144.393 54.0492V59.8652H145.662H146.931V57.4419V55.0185H149.469H152.007V57.4419V59.8652H153.276H154.545V54.0492V48.2333H153.276H152.007V50.5596V52.886H149.469H146.931V50.5596V48.2333H145.662H144.393V54.0492ZM169.772 54.0492V59.8652H170.846H171.92V54.0492V48.2333H170.846H169.772V54.0492ZM174.458 54.0492V59.8652H175.625H176.793L176.845 55.9394L176.898 52.0136L177.289 52.6251C177.503 52.9614 178.25 53.9554 178.948 54.834C179.646 55.7126 180.437 56.718 180.705 57.0681C183.034 60.1061 182.756 59.8652 183.932 59.8652H185V54.0492V48.2333H183.829H182.657V52.0415V55.8498L181.936 54.9011C181.54 54.3792 181.166 53.9087 181.105 53.8554C181.045 53.802 180.737 53.4095 180.421 52.983C180.105 52.5565 179.792 52.1639 179.724 52.1106C179.657 52.0573 178.96 51.1631 178.177 50.1234L176.753 48.2333H175.605H174.458V54.0492ZM112.881 51.0067C113.421 51.6304 113.469 52.0985 113.072 52.861C112.707 53.563 111.706 53.8554 109.669 53.8554H108.081V52.0935V50.3315L110.246 50.3972C112.339 50.4606 112.426 50.4805 112.881 51.0067ZM162.838 53.1004C163.889 55.1643 163.95 55.0185 162.035 55.0185H160.359L160.49 54.4854C160.562 54.1923 160.936 53.298 161.32 52.4983C161.962 51.1616 162.03 51.085 162.162 51.5495C162.241 51.8273 162.545 52.5252 162.838 53.1004ZM98.515 51.5379C98.515 51.6496 98.8225 52.393 99.1983 53.19C99.5741 53.9872 99.8816 54.7246 99.8816 54.8289C99.8816 54.9375 99.1793 55.0185 98.2389 55.0185H96.5963L96.9471 54.0977C97.5597 52.4888 98.1368 51.3351 98.3289 51.3351C98.4312 51.3351 98.515 51.4264 98.515 51.5379ZM35.4572 59.7198L35.4574 62.2885L36.4613 62.8701C37.0136 63.19 37.87 63.6859 38.3646 63.972C39.3042 64.5154 40.1075 64.6426 40.6821 64.3386C40.8685 64.2399 41.7459 63.7477 42.6316 63.2446L44.2422 62.3302V59.7362V57.1425L42.7292 57.9457C41.897 58.3875 41.0844 58.858 40.9234 58.9914C40.1901 59.5982 39.8092 59.6746 39.3337 59.3103C39.0806 59.1167 38.3552 58.6779 37.7215 58.3358C37.0878 57.9936 36.3875 57.5871 36.1649 57.4324C35.9426 57.2776 35.6923 57.1511 35.6087 57.1511C35.5254 57.1511 35.4571 58.3071 35.4572 59.7198Z" fill="#F0B90B"/>
</g>
<defs>
<filter id="filter0_d_40_180" x="0.264" y="0.764" width="207.2" height="86.2" filterUnits="userSpaceOnUse" color-interpolation-filters="sRGB">
<feFlood flood-opacity="0" result="BackgroundImageFix"/>
<feColorMatrix in="SourceAlpha" type="matrix" values="0 0 0 0 0 0 0 0 0 0 0 0 0 0 0 0 0 0 127 0" result="hardAlpha"/>
<feOffset dx="0.864" dy="0.864"/>
<feGaussianBlur stdDeviation="10.8"/>
<feComposite in2="hardAlpha" operator="out"/>
<feColorMatrix type="matrix" values="0 0 0 0 1 0 0 0 0 0.954167 0 0 0 0 0.541667 0 0 0 1 0"/>
<feBlend mode="normal" in2="BackgroundImageFix" result="effect1_dropShadow_40_180"/>
<feBlend mode="normal" in="SourceGraphic" in2="effect1_dropShadow_40_180" result="shape"/>
</filter>
</defs>
</svg>
