<svg width="295" height="87" viewBox="0 0 295 87" fill="none" xmlns="http://www.w3.org/2000/svg">
<g filter="url(#filter0_d_40_173)">
<path fill-rule="evenodd" clip-rule="evenodd" d="M40.0654 21.609C35.1453 22.111 30.645 24.3115 27.0893 27.9536C23.0894 32.0507 21 37.2145 21 43.0027C21 48.9837 23.2835 54.3881 27.5546 58.5154C33.8909 64.6386 43.185 66.2214 51.1202 62.5287C53.6332 61.3593 56.5432 59.2512 57.1032 58.1945C57.3371 57.7532 57.3345 56.8451 57.0982 56.39C56.7438 55.7079 55.9073 55.2901 55.1092 55.3967C54.6372 55.4597 54.4018 55.6131 52.9051 56.8322C50.9115 58.4563 48.6689 59.5232 45.8763 60.1764C44.6594 60.4611 44.3746 60.4859 42.2824 60.4897C40.3007 60.4933 39.8634 60.4612 38.8634 60.2383C35.4472 59.4766 32.3253 57.7974 30.0546 55.5L29.2995 54.7359L33.7467 47.6278C36.1927 43.7183 38.2409 40.4726 38.2983 40.4149C38.3636 40.3493 38.4028 41.7589 38.4028 44.1795C38.4028 48.2658 38.4549 48.8488 38.9087 49.8366C39.4499 51.0149 40.2167 51.5399 41.3956 51.5395C42.2794 51.5393 42.9731 51.2178 43.7579 50.445C44.4533 49.7602 44.4712 49.7333 47.5464 44.7684C48.9937 42.4316 50.2345 40.4499 50.3037 40.3644C50.3987 40.2471 50.4451 40.9234 50.4932 43.1233C50.564 46.3514 50.6293 46.745 51.3308 48.1756C51.887 49.3094 52.9498 50.3729 54.0427 50.8893C55.0752 51.3772 55.9497 51.5423 57.0802 51.4629C60.0571 51.254 62.4591 49.0582 63.2349 45.8366C63.6398 44.1556 63.5087 40.5756 62.9521 38.1098C62.0851 34.2695 59.9956 30.5215 57.1325 27.671C52.6326 23.191 46.368 20.9659 40.0654 21.609ZM44.8318 25.6248C48.7001 26.2407 51.9287 27.9498 54.7525 30.8766C57.8391 34.0756 59.5399 38.2682 59.6046 42.8372C59.6218 44.0566 59.5842 44.5216 59.4262 45.0442C58.8783 46.8558 57.4519 47.883 56.0569 47.4706C55.4208 47.2826 55.0238 46.9021 54.6767 46.1478C54.4333 45.6189 54.4198 45.4426 54.3541 41.8991C54.2913 38.5159 54.265 38.1395 54.0448 37.462C53.5775 36.0239 52.6239 35.189 51.3308 35.0856C50.6953 35.0349 50.5327 35.0663 49.9116 35.3601C48.4296 36.0611 48.0355 36.5574 44.7718 41.8328L42.3378 45.7673L42.2739 40.8812C42.2182 36.6112 42.1853 35.919 42.013 35.3913C41.5726 34.0427 40.7897 33.4019 39.5826 33.4019C38.8232 33.4019 38.3009 33.6397 37.6612 34.2764C37.3963 34.5402 35.0752 38.139 32.0693 42.9469C29.2428 47.4676 26.9022 51.1669 26.8679 51.1676C26.7701 51.1697 25.9291 49.1153 25.6035 48.079C25.0419 46.2905 24.8484 44.7314 24.9125 42.5061C25.017 38.8744 25.8987 36.0907 27.8889 33.1093C28.899 31.5962 31.0265 29.4472 32.4945 28.4571C34.5499 27.0709 36.9486 26.0901 39.2895 25.6787C40.7736 25.4179 43.3731 25.3927 44.8318 25.6248ZM85.8826 34.1093C82.5884 34.7359 80.0981 36.6654 78.6352 39.7245C77.2306 42.6614 77.4055 46.2338 79.0934 49.0911C80.7183 51.8416 83.676 53.6612 86.8872 53.886C89.2246 54.0495 91.4856 53.3584 93.5219 51.858C94.777 50.9331 95.0746 50.2107 94.6015 49.2377C94.3479 48.7162 93.7121 48.2997 93.1696 48.2997C92.6843 48.2997 92.1203 48.5552 91.5742 49.0223C90.9151 49.586 89.6642 50.155 88.6518 50.3517C86.214 50.8253 83.7224 49.7106 82.4724 47.587C82.3202 47.3284 82.0599 46.7249 81.8938 46.246C81.6297 45.4842 81.5923 45.2097 81.5944 44.0511C81.5965 42.9206 81.6399 42.5964 81.8907 41.8354C83.1937 37.8807 87.4422 36.4151 91.0952 38.6598C91.6162 38.9799 91.881 39.0724 92.2774 39.0724C93.541 39.0724 94.3934 37.751 93.8954 36.5643C93.5589 35.7626 91.8271 34.7336 90.0568 34.2836C88.8628 33.9801 86.9759 33.9013 85.8826 34.1093ZM113.278 34.1594C111.968 34.7517 111.538 36.3794 112.367 37.6046C113.175 38.7981 115.173 38.7629 116.021 37.5401C117.034 36.0778 115.936 33.9585 114.166 33.9585C113.922 33.9585 113.522 34.0489 113.278 34.1594ZM230.465 34.1211C228.487 34.495 226.812 35.3919 225.337 36.8669C223.361 38.8431 222.406 41.1477 222.406 43.9407C222.406 46.7733 223.368 49.0695 225.388 51.0586C227.909 53.5412 231.278 54.4659 234.649 53.6001C236.401 53.1501 238.887 51.6553 239.291 50.8087C239.784 49.7744 239.224 48.5529 238.16 48.341C237.59 48.2274 237.085 48.3944 236.41 48.9197C235.043 49.9832 233.757 50.4419 232.161 50.4355C231.323 50.4322 230.944 50.3737 230.308 50.1504C227.813 49.2738 226.252 46.9272 226.252 44.0511C226.252 40.4177 228.847 37.5953 232.187 37.5953C233.41 37.5953 235.063 38.125 236.087 38.8446C236.303 38.9958 236.585 39.0724 236.928 39.0724C238.325 39.0724 239.134 37.6599 238.475 36.3728C238.105 35.6511 236.421 34.7084 234.721 34.271C233.582 33.9781 231.593 33.908 230.465 34.1211ZM135.725 34.395C135.507 34.6121 135.504 34.7629 135.504 43.4092C135.504 52.0979 135.506 52.2085 135.735 52.6782C135.862 52.9398 136.118 53.2614 136.303 53.3928C136.659 53.6453 137.514 53.7826 137.989 53.6638C138.309 53.584 138.992 53.0205 139.193 52.6712C139.29 52.5033 139.343 51.152 139.383 47.8502L139.439 43.2625L141.766 45.7823C144.36 48.5898 144.564 48.7385 145.291 48.3423C145.501 48.2279 146.689 47.0339 147.931 45.6892L150.191 43.2441L150.246 47.8411C150.3 52.3376 150.307 52.4465 150.545 52.8284C151.267 53.9832 153.008 53.9969 153.795 52.8541L154.07 52.4543L154.102 43.673C154.119 38.8432 154.107 34.7861 154.075 34.6574C153.996 34.3347 153.422 34.1062 153.08 34.2613C152.937 34.3262 151.095 36.3136 148.987 38.6777C146.879 41.0418 145.075 43.0068 144.977 43.0442C144.879 43.0816 144.704 43.0617 144.588 43C144.472 42.9384 142.684 40.9866 140.614 38.663C138.544 36.3393 136.719 34.3787 136.56 34.3062C136.154 34.1221 135.981 34.1406 135.725 34.395ZM185.498 34.3431C184.988 34.5713 184.739 34.8072 184.486 35.3011C184.285 35.6921 184.276 36.0802 184.278 43.9639C184.28 51.7741 184.292 52.2416 184.487 52.6696C184.768 53.2856 185.277 53.6249 186.011 53.6854C186.729 53.7448 187.161 53.5826 187.595 53.0895C188.079 52.5406 188.154 52.0971 188.155 49.7559L188.155 47.6257L190.566 50.415C191.892 51.9491 193.146 53.3174 193.354 53.4557C194.479 54.2066 196.136 53.2259 196.136 51.8092C196.136 51.1891 196.054 51.0667 193.977 48.576C192.965 47.3637 192.389 46.5867 192.441 46.5027C192.486 46.4289 193.248 45.5826 194.135 44.622C195.022 43.6615 195.816 42.7477 195.899 42.5914C196.28 41.8743 195.815 40.5942 195.027 40.1885C194.543 39.9392 193.798 39.9778 193.354 40.2751C193.146 40.4136 191.905 41.7062 190.594 43.1476L188.211 45.7682L188.155 40.661C188.1 35.5692 188.099 35.5525 187.845 35.1455C187.353 34.3585 186.282 33.9924 185.498 34.3431ZM214.786 34.2976C214.258 34.4496 213.704 35.0556 213.555 35.6452C213.485 35.9222 213.428 36.9633 213.428 37.9628V39.7775L212.656 39.8209C211.801 39.8691 211.447 40.0557 211.017 40.6841C210.674 41.1861 210.683 41.9019 211.041 42.5096C211.386 43.0957 211.876 43.3338 212.737 43.3338H213.397L213.458 46.6168C213.51 49.4426 213.549 50.018 213.744 50.7487C214.017 51.7751 214.203 52.1489 214.73 52.729C215.505 53.5831 216.598 53.9278 218.531 53.9278C219.462 53.9278 219.652 53.8949 219.977 53.6768C220.805 53.121 221.076 52.2154 220.66 51.3918C220.363 50.8027 219.835 50.5068 219.081 50.5068C218.167 50.5068 217.762 50.3353 217.549 49.8574C217.404 49.531 217.364 48.9014 217.329 46.3961L217.287 43.3338H218.306C219.915 43.3338 220.524 42.8977 220.609 41.6856C220.645 41.1786 220.607 41.0058 220.393 40.6954C219.903 39.9837 219.627 39.8617 218.415 39.8198L217.32 39.7821L217.286 37.6038L217.252 35.4255L216.932 35.0086C216.591 34.5631 215.877 34.1743 215.423 34.1867C215.271 34.1909 214.984 34.2408 214.786 34.2976ZM101.549 39.9746C98.1235 40.7397 95.7441 43.8215 95.9733 47.1962C96.0998 49.0593 96.7292 50.4254 98.0879 51.7866C99.833 53.5347 102.101 54.2433 104.411 53.7625C106.326 53.3641 108.204 51.884 109.106 50.0641C110.207 47.841 110.142 45.2944 108.931 43.2253C108.11 41.8218 106.707 40.699 105.051 40.1206C104.187 39.8184 102.553 39.7503 101.549 39.9746ZM125.436 39.9205C124.796 40.0459 123.85 40.4862 123.201 40.9605C122.581 41.413 122.535 41.4237 122.535 41.1136C122.535 40.9852 122.341 40.6872 122.104 40.4515C121.714 40.063 121.62 40.0231 121.094 40.0231C120.567 40.0231 120.473 40.063 120.083 40.4515L119.653 40.88V46.6702V52.4605L119.905 52.8328C120.043 53.0377 120.33 53.3225 120.542 53.4658C120.866 53.6848 121.034 53.7199 121.597 53.6853C122.396 53.6364 122.877 53.3438 123.202 52.709C123.405 52.3137 123.421 52.052 123.421 49.2571C123.421 47.5939 123.472 45.9674 123.534 45.6425C123.688 44.8333 124.039 44.1536 124.472 43.8243C125.303 43.1935 126.922 43.2297 127.684 43.8961C128.412 44.5323 128.447 44.7388 128.514 48.8604L128.576 52.5661L128.886 52.9712C129.294 53.5035 129.714 53.7071 130.405 53.7071C131.116 53.7071 131.539 53.4913 131.959 52.9141L132.289 52.4601L132.287 48.5866C132.286 44.2337 132.238 43.8434 131.543 42.5273C130.584 40.7106 128.898 39.777 126.643 39.8145C126.243 39.8212 125.7 39.8688 125.436 39.9205ZM161.472 39.9618C159.724 40.3588 158.097 41.6588 157.253 43.3338C156.689 44.4529 156.457 45.4651 156.457 46.8099C156.457 48.1731 156.689 49.1631 157.296 50.386C158.175 52.159 159.624 53.3556 161.397 53.7719C163.263 54.2099 165.854 53.5516 166.93 52.3664C167.142 52.1327 167.341 51.9414 167.371 51.9414C167.402 51.9414 167.427 52.0928 167.427 52.278C167.427 53.0638 168.06 53.7071 168.833 53.7071C169.517 53.7071 169.953 53.4503 170.205 52.8997C170.402 52.4657 170.415 52.1041 170.415 46.8651C170.415 41.6261 170.402 41.2645 170.205 40.8305C169.953 40.2799 169.517 40.0231 168.833 40.0231C168.06 40.0231 167.427 40.6664 167.427 41.4522C167.427 41.8624 167.325 41.8749 166.979 41.5075C165.758 40.214 163.345 39.5367 161.472 39.9618ZM179.56 39.9564C178.812 40.1371 178.059 40.5106 177.408 41.0232L176.871 41.4453L176.801 41.0737C176.758 40.8442 176.583 40.5724 176.343 40.3626C175.664 39.7689 174.597 39.9441 174.121 40.7278C173.925 41.0492 173.909 41.4051 173.877 46.203C173.858 49.0253 173.874 51.5927 173.912 51.9083C173.992 52.5726 174.31 53.0963 174.856 53.4658C175.368 53.812 176.397 53.7751 176.938 53.3911C177.662 52.878 177.674 52.8096 177.736 48.9067C177.791 45.4113 177.794 45.3698 178.068 44.8292C178.221 44.5288 178.52 44.1461 178.733 43.9787C179.188 43.6218 180.206 43.3338 181.013 43.3338C182.867 43.3338 183.461 40.8327 181.798 40.031C181.257 39.7705 180.441 39.7433 179.56 39.9564ZM201.939 39.9156C198.688 40.4995 196.796 43.113 196.803 47.0128C196.805 48.4324 197.021 49.4573 197.539 50.5068C198.301 52.0512 199.757 53.1659 201.678 53.6751C202.585 53.9154 205.207 53.9425 206.112 53.7208C207.024 53.4975 208.062 52.9563 208.497 52.477C208.839 52.1001 208.883 51.9818 208.883 51.4483C208.883 50.932 208.834 50.7899 208.541 50.457C208.331 50.2189 208.025 50.022 207.75 49.9483C207.286 49.8239 207.271 49.827 205.903 50.3354C205.636 50.4347 205.044 50.5631 204.588 50.6206C202.735 50.8545 201.144 50.1223 200.796 48.8756C200.558 48.0202 200.202 48.0928 204.81 48.0565C208.587 48.0266 208.964 48.0067 209.236 47.8231C209.798 47.4435 209.938 47.1087 209.916 46.1986C209.847 43.2551 208.189 40.9448 205.558 40.1234C204.727 39.8642 202.831 39.7553 201.939 39.9156ZM245.684 39.9753C243.373 40.4735 241.448 42.4495 240.852 44.9339C240.59 46.0265 240.614 47.7839 240.905 48.8846C241.697 51.8735 244.148 53.9278 246.923 53.9278C248.395 53.9278 250.235 53.2655 251.069 52.4352C251.554 51.9519 251.67 51.9668 251.67 52.5127C251.67 52.8384 251.988 53.3198 252.339 53.5265C252.508 53.6259 252.881 53.7071 253.169 53.7071C253.628 53.7071 253.743 53.6551 254.121 53.2787L254.552 52.8502V46.8651V40.88L254.121 40.4515C253.743 40.0751 253.628 40.0231 253.169 40.0231C252.281 40.0231 251.77 40.4984 251.618 41.4664L251.556 41.8614L251.034 41.3847C249.612 40.0845 247.616 39.5587 245.684 39.9753ZM264.084 39.9753C263.21 40.1638 262.19 40.6492 261.585 41.1647L261.136 41.5472L260.941 41.0003C260.614 40.0832 259.624 39.7372 258.785 40.2467C258.076 40.6767 258.099 40.3716 258.101 49.648C258.104 57.604 258.115 58.0908 258.309 58.5162C258.975 59.9761 261.037 59.9875 261.743 58.5351C261.962 58.0844 261.978 57.8754 261.978 55.4581V52.8645L262.727 53.2275C264.232 53.9575 266.248 54.1085 267.706 53.6004C268.521 53.3162 269.744 52.4915 270.235 51.8952C270.856 51.1403 271.391 50.1725 271.703 49.2377C271.965 48.4529 271.998 48.1834 272 46.8099C272.002 45.3999 271.975 45.1879 271.693 44.3832C270.508 41.0024 267.473 39.2447 264.084 39.9753ZM113.24 40.2103C113.036 40.3105 112.736 40.5912 112.575 40.8342L112.281 41.2759L112.251 46.733C112.22 52.0941 112.224 52.1988 112.454 52.6721C112.755 53.2903 113.223 53.6185 113.897 53.6829C114.586 53.7489 114.898 53.6655 115.337 53.2979C116.106 52.6539 116.1 52.6974 116.103 46.8892C116.105 42.4254 116.081 41.6122 115.934 41.2626C115.731 40.7796 115.389 40.3928 114.975 40.1782C114.573 39.9699 113.697 39.9862 113.24 40.2103ZM164.764 43.7469C167.594 45.1845 166.798 49.9942 163.655 50.447C161.883 50.7023 160.321 48.9998 160.321 46.8126C160.321 45.4661 160.87 44.3841 161.842 43.817C162.815 43.2493 163.74 43.2272 164.764 43.7469ZM248.868 43.6774C249.512 43.9872 250.281 44.8693 250.519 45.5717C250.758 46.2758 250.758 47.5046 250.519 48.163C250.097 49.327 249.193 50.1553 248.072 50.4051C246.816 50.6849 245.487 49.8969 244.844 48.4911C244.448 47.6241 244.403 46.3809 244.732 45.434C245.012 44.6291 245.885 43.7475 246.639 43.5086C247.309 43.296 248.219 43.3649 248.868 43.6774ZM266.339 43.6455C266.955 43.9171 267.521 44.4822 267.86 45.1662C268.089 45.6277 268.128 45.8672 268.129 46.8099C268.13 47.7691 268.093 47.9929 267.843 48.5204C267.249 49.7776 266.312 50.4405 265.14 50.4343C264.318 50.43 263.804 50.2198 263.151 49.6205C261.559 48.1593 261.61 45.2912 263.251 44.0455C264.183 43.3374 265.308 43.1917 266.339 43.6455ZM104.315 43.754C106.863 45.0498 106.463 49.5212 103.724 50.3564C102.254 50.8044 100.547 49.7638 100.032 48.1064C99.2487 45.5805 100.748 43.3464 103.137 43.4809C103.581 43.5058 104.033 43.6106 104.315 43.754ZM204.602 43.6693C204.935 43.7932 205.342 44.0003 205.507 44.1296C205.793 44.3532 206.215 45.1076 206.221 45.4029C206.222 45.5096 205.596 45.5408 203.452 45.5408C200.396 45.5408 200.521 45.5741 200.833 44.8476C201.331 43.689 203.138 43.124 204.602 43.6693Z" fill="white"/>
</g>
<defs>
<filter id="filter0_d_40_173" x="0.264" y="0.764" width="294.2" height="86.2" filterUnits="userSpaceOnUse" color-interpolation-filters="sRGB">
<feFlood flood-opacity="0" result="BackgroundImageFix"/>
<feColorMatrix in="SourceAlpha" type="matrix" values="0 0 0 0 0 0 0 0 0 0 0 0 0 0 0 0 0 0 127 0" result="hardAlpha"/>
<feOffset dx="0.864" dy="0.864"/>
<feGaussianBlur stdDeviation="10.8"/>
<feComposite in2="hardAlpha" operator="out"/>
<feColorMatrix type="matrix" values="0 0 0 0 0.620833 0 0 0 0 0.818 0 0 0 0 1 0 0 0 1 0"/>
<feBlend mode="normal" in2="BackgroundImageFix" result="effect1_dropShadow_40_173"/>
<feBlend mode="normal" in="SourceGraphic" in2="effect1_dropShadow_40_173" result="shape"/>
</filter>
</defs>
</svg>
