<svg width="163" height="84" viewBox="0 0 163 84" fill="none" xmlns="http://www.w3.org/2000/svg">
<g filter="url(#filter0_d_40_142)">
<path d="M71 29.1H75.5V47.5H80V24.5H75.5C73.025 24.5 71 26.57 71 29.1Z" fill="#1B314F"/>
</g>
<g filter="url(#filter1_d_40_142)">
<path d="M85 47.5H90V38.1667C90 35.6 87.75 33.5 85 33.5V47.5Z" fill="#1B314F"/>
</g>
<g filter="url(#filter2_d_40_142)">
<path d="M95 33.5V47.5H99.6667V38.1667H104.333V42.8333C104.333 45.4 106.433 47.5 109 47.5V38.1667C109 35.6 106.9 33.5 104.333 33.5H95Z" fill="#1B314F"/>
</g>
<g filter="url(#filter3_d_40_142)">
<path d="M136.333 33.7H131.667V29.1C131.667 26.57 129.567 24.5 127 24.5V42.9H117.667V38.3H122.333V33.7H117.667C115.1 33.7 113 35.77 113 38.3V42.9C113 45.43 115.1 47.5 117.667 47.5H131.667V38.3H136.333V42.9C136.333 45.43 138.433 47.5 141 47.5V38.3C141 35.77 138.9 33.7 136.333 33.7Z" fill="#1B314F"/>
</g>
<g filter="url(#filter4_d_40_142)">
<path d="M85 29.5H90C90 26.75 87.75 24.5 85 24.5V29.5Z" fill="#1B314F"/>
</g>
<g filter="url(#filter5_d_40_142)">
<path d="M78 55.5H76V52.5H77.9517V52.9928H76.5928V53.7385H77.8072V54.2314H76.5928V55.0072H78V55.5Z" fill="#2F7AEA"/>
</g>
<g filter="url(#filter6_d_40_142)">
<path d="M86.2928 52.5H86.9585L85.8675 53.9701L87 55.5H86.3344L85.4977 54.3729L84.6656 55.5H84L85.1326 53.9701L84.0509 52.5H84.7166L85.5116 53.5842L86.2928 52.5Z" fill="#2F7AEA"/>
</g>
<g filter="url(#filter7_d_40_142)">
<path d="M95.759 54.7894L96 55.1717C95.8873 55.2687 95.7249 55.3476 95.5129 55.4086C95.3043 55.4696 95.0838 55.5 94.8513 55.5C94.3043 55.5 93.8581 55.3629 93.5128 55.0887C93.1709 54.8144 93 54.4515 93 54C93 53.5679 93.1624 53.2092 93.4872 52.9239C93.8086 52.6413 94.2582 52.5 94.8359 52.5C95.294 52.5 95.6581 52.5984 95.9282 52.795L95.6462 53.1732C95.4035 53.0429 95.1334 52.9779 94.8359 52.9779C94.494 52.9779 94.2136 53.0706 93.9949 53.2562C93.7761 53.4418 93.6667 53.6897 93.6667 54C93.6667 54.3047 93.7812 54.5513 94.0103 54.7396C94.2428 54.928 94.5419 55.0221 94.9077 55.0221C95.2222 55.0221 95.506 54.9446 95.759 54.7894Z" fill="#2F7AEA"/>
</g>
<g filter="url(#filter8_d_40_142)">
<path d="M105 55.5H104.352V54.2186H102.653V55.5H102V52.5H102.653V53.7257H104.352V52.5H105V55.5Z" fill="#2F7AEA"/>
</g>
<g filter="url(#filter9_d_40_142)">
<path d="M111.531 55.5H111L112.269 52.5H112.731L114 55.5H113.439L113.126 54.7351H111.844L111.531 55.5ZM112.924 54.2436L112.487 53.1795L112.046 54.2436H112.924Z" fill="#2F7AEA"/>
</g>
<g filter="url(#filter10_d_40_142)">
<path d="M124 52.5V55.5H123.508L121.577 53.4215V55.5H121V52.5H121.492L123.423 54.5872V52.5H124Z" fill="#2F7AEA"/>
</g>
<g filter="url(#filter11_d_40_142)">
<path d="M132.449 54.3657H131.641V53.8878H133V55.0928C132.856 55.2175 132.665 55.3172 132.426 55.392C132.187 55.464 131.96 55.5 131.746 55.5C131.205 55.5 130.777 55.3643 130.465 55.0928C130.154 54.8241 130 54.4599 130 54C130 53.5734 130.153 53.2174 130.46 52.9321C130.765 52.644 131.169 52.5 131.669 52.5C132.097 52.5 132.456 52.5984 132.746 52.795L132.497 53.2022C132.414 53.133 132.304 53.079 132.168 53.0402C132.03 52.9986 131.889 52.9779 131.741 52.9779C131.407 52.9779 131.138 53.0693 130.933 53.252C130.726 53.4321 130.623 53.6815 130.623 54C130.623 54.3075 130.726 54.5554 130.933 54.7438C131.138 54.9294 131.412 55.0221 131.756 55.0221C131.877 55.0221 132.008 55.0028 132.149 54.964C132.289 54.9224 132.389 54.8754 132.449 54.8227V54.3657Z" fill="#2F7AEA"/>
</g>
<g filter="url(#filter12_d_40_142)">
<path d="M141 55.5H139V52.5H140.952V52.9928H139.593V53.7385H140.807V54.2314H139.593V55.0072H141V55.5Z" fill="#2F7AEA"/>
</g>
<g filter="url(#filter13_d_40_142)">
<path d="M29.4525 41.8761L30.6821 32.9323L20 25.7698L29.7599 28.9614L32.0653 25.5471L40.4804 20.5L59.0394 30.3717L60 45.4388L51.7387 56.5351L45.2065 57.5L48.5879 51.5251V45.7729L46.1287 41.2823L43.6311 39.6866L39.7886 43.5091V47.5542L36.7916 50.2633L32.9875 50.7086L31.2969 51.6364L28.5303 50.7829L27.3775 46.7748L29.4525 43.9543V41.8761Z" fill="white"/>
</g>
<g filter="url(#filter14_d_40_142)">
<path d="M47 25.8488C44.863 25.3906 42.5243 25.5156 42.5243 25.5156C42.5243 25.5156 41.7581 29.1807 37 30.1387C37.0404 30.1387 43.2904 32.346 47 25.8488Z" fill="#94A6C3"/>
</g>
<g filter="url(#filter15_d_40_142)">
<path d="M47.8753 56.2712C50.2737 54.3644 52.0725 51.733 52.8969 48.7584C52.9344 48.6441 53.2717 48.4533 53.4965 48.3009C53.8713 48.072 54.246 47.8813 54.321 47.5762C54.4708 46.6991 54.5458 45.7839 54.5458 44.8687C54.5458 44.5254 54.2085 44.1822 53.8713 43.839C53.6089 43.6101 53.3466 43.3431 53.3466 43.1525C52.9719 39.6821 51.398 36.4407 48.8872 34.0763L48.6249 34.3432C51.0607 36.6695 52.6346 39.8347 52.9719 43.1907C53.0093 43.4957 53.3091 43.8008 53.6089 44.1059C53.8713 44.3348 54.171 44.678 54.171 44.8304C54.171 45.7076 54.0961 46.5847 53.9462 47.4618C53.9087 47.6144 53.5715 47.7669 53.3091 47.9195C52.9344 48.1101 52.5971 48.3009 52.5222 48.6059C51.6228 51.8474 49.5617 54.6695 46.8261 56.5C47.3132 55.4321 48.8496 51.9619 49.6741 50.2076L49.5243 44.5636L44.765 39.8729L42.0668 40.2542L39.1063 45.1355C39.1063 45.1355 40.4929 46.9279 38.5442 49.0254C36.633 51.0847 35.134 51.5423 35.134 51.5423L33.7474 50.7796C34.1596 50.2457 34.9841 49.4449 35.6211 48.911C36.7079 47.9958 37.7947 47.9195 37.7947 46.9279C37.8322 44.8687 35.6586 45.4406 35.6586 45.4406L34.8717 46.2034L34.5344 49.0254L32.8855 51.1228L32.6982 51.0847L30 50.4746C30 50.4746 31.6488 49.5974 31.9112 48.6059C32.1735 47.6526 31.3865 44.4872 31.349 44.2966C31.3865 44.3348 32.136 44.983 32.4733 46.0508C33.0729 44.3729 33.8598 42.7712 34.0847 42.6186C34.3095 42.4661 37.345 40.8262 37.345 40.8262L36.3332 43.5339L37.0826 43.1144L38.8814 38.6144C38.8814 38.6144 40.6427 37.7373 41.9543 37.7373C44.3152 37.6991 47.8004 34.7627 46.2265 29.5C46.6761 29.6907 54.4708 33.6568 55.82 41.4364C56.8318 47.4237 53.4965 53.0296 47.8753 56.2712Z" fill="#94A6C3"/>
</g>
<g filter="url(#filter16_d_40_142)">
<path d="M39.3136 27.207C40.317 26.1161 39.9243 24.5 39.9243 24.5L37.0013 28.4999C36.9577 28.4999 38.0483 28.5403 39.3136 27.207Z" fill="#1B314F"/>
</g>
<g filter="url(#filter17_d_40_142)">
<path d="M30.2864 46.8327L30.6432 45.5C30.6432 45.5 29.1714 47.4324 29.0376 47.6989C28.9039 47.9988 29.1268 48.5319 29.7067 48.4985C30.2864 48.4652 31 47.8322 31 47.3657C31 46.7661 30.2864 46.8327 30.2864 46.8327Z" fill="#1B314F"/>
</g>
<g filter="url(#filter18_d_40_142)">
<path d="M52.599 23.0006C52.599 23.0006 54.4972 23.0761 56.4714 23.3022C52.0295 19.8332 47.8153 18.815 44.3984 18.815C39.6906 18.815 36.5015 20.7382 36.3116 20.8513L37.7923 18.5134C37.7923 18.5134 31.8696 17.9479 29.7815 24.1695C29.25 22.8498 28.7564 20.9267 28.7564 20.9267C28.7564 20.9267 25.6812 23.6039 27.1239 28.0534C23.5931 26.7714 18.5437 24.9991 18.3538 24.9614C18.0881 24.9237 18.0122 25.0368 18.0122 25.0368C18.0122 25.0368 17.9362 25.1499 18.164 25.3385C18.5816 25.6778 26.5544 31.5226 28.3009 32.6537C27.9212 34.0112 27.9212 34.6523 28.3009 35.2933C28.8323 36.1606 28.8703 36.613 28.7944 37.2541C28.7185 37.8951 28.0351 43.4381 27.8832 44.1168C27.7314 44.7956 26.1368 47.2089 26.2128 47.9253C26.2887 48.6417 27.2758 51.696 28.149 52.0355C28.7944 52.2616 30.389 52.7519 31.452 52.7519C31.8316 52.7519 32.1733 52.6765 32.3252 52.5256C32.9706 51.96 33.1605 51.8469 33.616 51.8469C33.654 51.8469 33.6919 51.8469 33.73 51.8469C33.9198 51.8469 34.1476 51.8846 34.4134 51.8846C35.0208 51.8846 35.818 51.7715 36.3875 51.2436C37.2228 50.414 38.6655 49.2827 39.1211 48.7549C39.6906 48.0384 39.9943 47.058 39.8425 46.0776C39.7285 45.1727 40.2221 44.3808 40.7916 43.589C41.5129 42.6462 42.8417 40.9494 42.8417 40.9494C45.4613 42.9102 47.0938 45.8891 47.0938 49.2073C47.0938 55.0897 41.9306 59.8408 35.5524 59.8408C34.5652 59.8408 33.616 59.7277 32.6669 59.5015C35.5903 60.5196 38.0581 60.859 40.0702 60.859C44.3604 60.859 46.6383 59.313 46.6383 59.313C46.6383 59.313 45.841 60.3311 44.5502 61.5C44.5881 61.5 44.5881 61.5 44.5881 61.5C51.6878 60.5196 55.1426 54.7126 55.1426 54.7126C55.1426 54.7126 54.8769 56.5981 54.5352 57.8801C63.9886 50.8288 62.3941 42.0052 62.3561 41.7035C62.432 41.8167 63.3812 42.9478 63.8748 43.5512C65.3934 28.0157 52.599 23.0006 52.599 23.0006ZM38.0581 47.8122C37.9062 48.0007 37.2608 48.5663 36.8052 48.981C36.3496 49.3959 35.8561 49.8106 35.4763 50.1877C35.3245 50.3386 35.0208 50.414 34.5652 50.414C34.4134 50.414 34.2614 50.414 34.1476 50.414C34.0717 50.414 33.9957 50.414 33.9198 50.414C33.8439 50.414 33.8059 50.414 33.768 50.414C33.654 50.414 33.5401 50.414 33.4262 50.414C33.9957 49.6599 35.6662 47.9253 36.2357 47.5483C36.9191 47.0957 37.2608 46.6433 36.8432 45.8514C36.4255 45.0595 35.3245 45.2481 35.3245 45.2481C35.3245 45.2481 35.9699 44.9841 36.5394 44.9841C35.818 44.7956 34.9068 44.9841 34.4893 45.3989C34.0337 45.8137 34.1096 47.2843 33.9198 48.227C33.73 49.2073 33.0845 49.6976 32.0974 50.6025C31.5659 51.0927 31.1862 51.2436 30.8825 51.2436C30.2371 51.1305 29.4777 50.9419 28.9463 50.7533C28.5666 50.2632 27.9972 48.6417 27.8453 47.963C27.9591 47.5859 28.4148 46.794 28.6426 46.3416C29.0981 45.4743 29.3639 44.9841 29.4398 44.5317C29.5917 43.8906 30.0853 39.9312 30.2751 38.2722C30.7687 38.9132 31.452 39.9691 31.3002 40.6478C32.4011 39.1018 31.6039 37.5935 31.2242 36.9901C30.8825 36.3868 30.427 35.1802 30.8066 33.898C31.1862 32.616 32.5531 29.0715 32.5531 29.0715C32.5531 29.0715 33.0086 29.8634 33.654 29.7126C34.2994 29.5617 39.5007 21.7939 39.5007 21.7939C39.5007 21.7939 40.9055 24.8482 39.4248 27.0731C37.9062 29.2978 36.4255 29.7126 36.4255 29.7126C36.4255 29.7126 38.5136 30.0897 40.4499 28.6944C41.2471 30.5421 42.0065 32.4652 42.0445 32.7292C41.9306 32.9931 40.4119 36.613 40.2601 36.8393C40.1842 36.9146 39.6526 37.0655 39.273 37.1409C38.6276 37.3295 38.2478 37.4426 38.096 37.5558C37.8303 37.7819 36.6153 41.1002 36.0458 42.7217C35.3625 42.9102 34.6791 43.2873 34.1855 44.0414C34.4513 43.8528 35.2866 43.7397 35.894 43.6644C36.4255 43.6267 38.0581 44.494 38.4757 46.1153C38.4757 46.153 38.4757 46.153 38.4757 46.1907C38.5516 46.794 38.3618 47.3597 38.0581 47.8122ZM34.4893 48.2647C34.8309 47.7744 34.793 46.9449 34.8309 46.681C34.8689 46.417 34.9449 45.9268 35.2486 45.8514C35.5524 45.776 36.2737 45.8891 36.2737 46.417C36.2737 46.9072 35.7421 47.0203 35.3625 47.3597C35.0967 47.6236 34.5652 48.1893 34.4893 48.2647ZM49.6376 41.0625C50.0172 39.1395 50.0552 37.4803 49.9413 36.1229C51.422 38.0836 52.3332 40.4592 52.599 42.9102C52.6369 43.2118 52.9406 43.5135 53.2444 43.8151C53.5101 44.0414 53.8139 44.3431 53.8139 44.5317C53.8139 45.3989 53.7378 46.2661 53.586 47.1334C53.5481 47.2466 53.2064 47.4351 52.9406 47.5859C52.5609 47.7744 52.2192 47.963 52.1433 48.2647C51.308 51.1682 49.5236 53.7322 47.1319 55.5422C50.6626 51.8846 52.3711 45.8514 49.6376 41.0625ZM47.2458 55.8815C49.7135 53.9962 51.6118 51.3566 52.447 48.3777C52.485 48.2646 52.8267 48.0761 53.0545 47.9253C53.4341 47.7367 53.8139 47.5106 53.8898 47.2089C54.0416 46.3416 54.1176 45.4366 54.1176 44.5317C54.1176 44.1923 53.7759 43.8528 53.4341 43.5135C53.2444 43.2873 52.9406 43.0234 52.9406 42.8348C52.6369 40.0821 51.5359 37.4803 49.8275 35.331C49.0681 30.8061 46.0308 29.411 45.9549 29.3731C46.0308 29.4863 48.005 32.3144 46.6383 35.6326C45.2335 38.9886 41.6269 38.4608 41.3232 38.4984C41.0194 38.4984 39.8425 40.0068 38.3618 42.7971C38.1719 42.7217 37.3747 42.5331 36.4634 42.684C37.1469 40.7985 38.1719 38.1213 38.3618 37.8951C38.4377 37.8196 39.0072 37.6689 39.3868 37.5558C40.1083 37.3672 40.4499 37.2541 40.5638 37.1032C40.6397 36.9902 41.0193 36.1229 41.3991 35.2179C41.7407 35.2179 42.614 35.1425 42.6899 35.1047C42.7658 35.0293 43.4872 33.1816 43.4872 32.9554C43.4872 32.7669 42.0065 29.1093 41.437 27.7141C41.7028 27.4124 41.9686 27.0354 42.2343 26.6205C50.0172 27.4501 56.0918 34.0112 56.0918 41.9675C56.0918 48.0761 52.485 53.3929 47.2458 55.8815Z" fill="#1B314F"/>
</g>
<g filter="url(#filter19_d_40_142)">
<path d="M37.6122 35.7678C38.3893 34.8964 37.9803 33.2725 36.5489 32.9952C36.9169 32.1635 37.4486 30.5 37.4486 30.5C37.4486 30.5 33.2769 36.8371 32.9087 36.9559C32.5406 37.0748 32.1725 35.6885 32.1725 35.6885C31.3955 38.5799 33.4813 38.9759 33.7267 38.0649C34.8719 37.7877 36.835 36.5994 37.6122 35.7678Z" fill="#1B314F"/>
</g>
<g filter="url(#filter20_d_40_142)">
<path d="M34 36.5L36.191 33.5C36.191 33.5 37.4551 34.0056 36.823 34.8146C36.0225 35.7584 34 36.5 34 36.5Z" fill="#FFD923"/>
</g>
<g filter="url(#filter21_d_40_142)">
<path d="M58.8983 52.2314C58.3507 52.9752 57.7301 53.7561 57 54.5C61.7094 45.2769 57.2191 36.8347 57.0365 36.5C57.365 36.8347 57.6936 37.2067 57.9857 37.5414C61.6 41.6323 62.038 47.7686 58.8983 52.2314Z" fill="#D82122"/>
</g>
<g filter="url(#filter22_d_40_142)">
<path d="M63 40.5C61.2565 35.9908 58.7768 32.1523 53.3136 28.6866C48.0442 25.3325 42.3874 25.5934 42.0775 25.6307C42.0387 25.6307 42 25.6307 42 25.6307C42.1937 25.5562 42.3874 25.5189 42.5811 25.4817C43.7822 25.109 45.332 24.8109 46.8818 24.6245C50.989 24.0655 55.1347 25.4072 57.9631 28.2766C58.0018 28.3139 58.0018 28.3139 58.0406 28.3511C61.2565 31.6306 62.9225 35.7299 63 40.5Z" fill="#D82122"/>
</g>
<g filter="url(#filter23_d_40_142)">
<path d="M52 21.5264C46.2431 20.4139 42.534 20.9701 39.8682 22.0033C39.791 21.6854 39.5205 21.0497 39.2887 20.5331C38.4772 21.5264 37.6273 22.7185 37.0864 23.4734C35.6182 24.5066 35 25.5 35 25.5C35.85 22.5198 38.3228 20.2946 41.3364 19.7384C42.1863 19.5794 43.1136 19.5 44.1182 19.5C46.7841 19.5397 49.45 20.2152 52 21.5264Z" fill="#D82122"/>
</g>
<g filter="url(#filter24_d_40_142)">
<path d="M31 29.5C26.8123 29.3379 28.2082 23.8243 28.2798 23.5C28.2798 23.5405 28.5661 27.8378 31 29.5Z" fill="#D82122"/>
</g>
<g filter="url(#filter25_d_40_142)">
<path d="M36 19.5C32.3416 21.5656 33.0733 26.5 33.0733 26.5C29.5775 21.4891 35.7154 19.6147 36 19.5Z" fill="#D82122"/>
</g>
<g filter="url(#filter26_d_40_142)">
<path d="M29.7142 29.4759C29.9245 29.6353 30.1349 29.9221 29.8895 30.3364C29.7492 30.5595 29.5389 30.5276 29.2233 30.4002C28.8027 30.2089 26.2787 28.8704 24 27.5C26.5942 28.3286 29.2233 29.221 29.6441 29.4122C29.6441 29.4122 29.6791 29.4441 29.7142 29.4759Z" fill="white"/>
</g>
<defs>
<filter id="filter0_d_40_142" x="53" y="6.5" width="49" height="63" filterUnits="userSpaceOnUse" color-interpolation-filters="sRGB">
<feFlood flood-opacity="0" result="BackgroundImageFix"/>
<feColorMatrix in="SourceAlpha" type="matrix" values="0 0 0 0 0 0 0 0 0 0 0 0 0 0 0 0 0 0 127 0" result="hardAlpha"/>
<feOffset dx="2" dy="2"/>
<feGaussianBlur stdDeviation="10"/>
<feComposite in2="hardAlpha" operator="out"/>
<feColorMatrix type="matrix" values="0 0 0 0 0.541667 0 0 0 0 0.78 0 0 0 0 1 0 0 0 0.5 0"/>
<feBlend mode="normal" in2="BackgroundImageFix" result="effect1_dropShadow_40_142"/>
<feBlend mode="normal" in="SourceGraphic" in2="effect1_dropShadow_40_142" result="shape"/>
</filter>
<filter id="filter1_d_40_142" x="67" y="15.5" width="45" height="54" filterUnits="userSpaceOnUse" color-interpolation-filters="sRGB">
<feFlood flood-opacity="0" result="BackgroundImageFix"/>
<feColorMatrix in="SourceAlpha" type="matrix" values="0 0 0 0 0 0 0 0 0 0 0 0 0 0 0 0 0 0 127 0" result="hardAlpha"/>
<feOffset dx="2" dy="2"/>
<feGaussianBlur stdDeviation="10"/>
<feComposite in2="hardAlpha" operator="out"/>
<feColorMatrix type="matrix" values="0 0 0 0 0.541667 0 0 0 0 0.78 0 0 0 0 1 0 0 0 0.5 0"/>
<feBlend mode="normal" in2="BackgroundImageFix" result="effect1_dropShadow_40_142"/>
<feBlend mode="normal" in="SourceGraphic" in2="effect1_dropShadow_40_142" result="shape"/>
</filter>
<filter id="filter2_d_40_142" x="77" y="15.5" width="54" height="54" filterUnits="userSpaceOnUse" color-interpolation-filters="sRGB">
<feFlood flood-opacity="0" result="BackgroundImageFix"/>
<feColorMatrix in="SourceAlpha" type="matrix" values="0 0 0 0 0 0 0 0 0 0 0 0 0 0 0 0 0 0 127 0" result="hardAlpha"/>
<feOffset dx="2" dy="2"/>
<feGaussianBlur stdDeviation="10"/>
<feComposite in2="hardAlpha" operator="out"/>
<feColorMatrix type="matrix" values="0 0 0 0 0.541667 0 0 0 0 0.78 0 0 0 0 1 0 0 0 0.5 0"/>
<feBlend mode="normal" in2="BackgroundImageFix" result="effect1_dropShadow_40_142"/>
<feBlend mode="normal" in="SourceGraphic" in2="effect1_dropShadow_40_142" result="shape"/>
</filter>
<filter id="filter3_d_40_142" x="95" y="6.5" width="68" height="63" filterUnits="userSpaceOnUse" color-interpolation-filters="sRGB">
<feFlood flood-opacity="0" result="BackgroundImageFix"/>
<feColorMatrix in="SourceAlpha" type="matrix" values="0 0 0 0 0 0 0 0 0 0 0 0 0 0 0 0 0 0 127 0" result="hardAlpha"/>
<feOffset dx="2" dy="2"/>
<feGaussianBlur stdDeviation="10"/>
<feComposite in2="hardAlpha" operator="out"/>
<feColorMatrix type="matrix" values="0 0 0 0 0.541667 0 0 0 0 0.78 0 0 0 0 1 0 0 0 0.5 0"/>
<feBlend mode="normal" in2="BackgroundImageFix" result="effect1_dropShadow_40_142"/>
<feBlend mode="normal" in="SourceGraphic" in2="effect1_dropShadow_40_142" result="shape"/>
</filter>
<filter id="filter4_d_40_142" x="67" y="6.5" width="45" height="45" filterUnits="userSpaceOnUse" color-interpolation-filters="sRGB">
<feFlood flood-opacity="0" result="BackgroundImageFix"/>
<feColorMatrix in="SourceAlpha" type="matrix" values="0 0 0 0 0 0 0 0 0 0 0 0 0 0 0 0 0 0 127 0" result="hardAlpha"/>
<feOffset dx="2" dy="2"/>
<feGaussianBlur stdDeviation="10"/>
<feComposite in2="hardAlpha" operator="out"/>
<feColorMatrix type="matrix" values="0 0 0 0 0.541667 0 0 0 0 0.78 0 0 0 0 1 0 0 0 0.5 0"/>
<feBlend mode="normal" in2="BackgroundImageFix" result="effect1_dropShadow_40_142"/>
<feBlend mode="normal" in="SourceGraphic" in2="effect1_dropShadow_40_142" result="shape"/>
</filter>
<filter id="filter5_d_40_142" x="58" y="34.5" width="42" height="43" filterUnits="userSpaceOnUse" color-interpolation-filters="sRGB">
<feFlood flood-opacity="0" result="BackgroundImageFix"/>
<feColorMatrix in="SourceAlpha" type="matrix" values="0 0 0 0 0 0 0 0 0 0 0 0 0 0 0 0 0 0 127 0" result="hardAlpha"/>
<feOffset dx="2" dy="2"/>
<feGaussianBlur stdDeviation="10"/>
<feComposite in2="hardAlpha" operator="out"/>
<feColorMatrix type="matrix" values="0 0 0 0 0.541667 0 0 0 0 0.78 0 0 0 0 1 0 0 0 0.5 0"/>
<feBlend mode="normal" in2="BackgroundImageFix" result="effect1_dropShadow_40_142"/>
<feBlend mode="normal" in="SourceGraphic" in2="effect1_dropShadow_40_142" result="shape"/>
</filter>
<filter id="filter6_d_40_142" x="66" y="34.5" width="43" height="43" filterUnits="userSpaceOnUse" color-interpolation-filters="sRGB">
<feFlood flood-opacity="0" result="BackgroundImageFix"/>
<feColorMatrix in="SourceAlpha" type="matrix" values="0 0 0 0 0 0 0 0 0 0 0 0 0 0 0 0 0 0 127 0" result="hardAlpha"/>
<feOffset dx="2" dy="2"/>
<feGaussianBlur stdDeviation="10"/>
<feComposite in2="hardAlpha" operator="out"/>
<feColorMatrix type="matrix" values="0 0 0 0 0.541667 0 0 0 0 0.78 0 0 0 0 1 0 0 0 0.5 0"/>
<feBlend mode="normal" in2="BackgroundImageFix" result="effect1_dropShadow_40_142"/>
<feBlend mode="normal" in="SourceGraphic" in2="effect1_dropShadow_40_142" result="shape"/>
</filter>
<filter id="filter7_d_40_142" x="75" y="34.5" width="43" height="43" filterUnits="userSpaceOnUse" color-interpolation-filters="sRGB">
<feFlood flood-opacity="0" result="BackgroundImageFix"/>
<feColorMatrix in="SourceAlpha" type="matrix" values="0 0 0 0 0 0 0 0 0 0 0 0 0 0 0 0 0 0 127 0" result="hardAlpha"/>
<feOffset dx="2" dy="2"/>
<feGaussianBlur stdDeviation="10"/>
<feComposite in2="hardAlpha" operator="out"/>
<feColorMatrix type="matrix" values="0 0 0 0 0.541667 0 0 0 0 0.78 0 0 0 0 1 0 0 0 0.5 0"/>
<feBlend mode="normal" in2="BackgroundImageFix" result="effect1_dropShadow_40_142"/>
<feBlend mode="normal" in="SourceGraphic" in2="effect1_dropShadow_40_142" result="shape"/>
</filter>
<filter id="filter8_d_40_142" x="84" y="34.5" width="43" height="43" filterUnits="userSpaceOnUse" color-interpolation-filters="sRGB">
<feFlood flood-opacity="0" result="BackgroundImageFix"/>
<feColorMatrix in="SourceAlpha" type="matrix" values="0 0 0 0 0 0 0 0 0 0 0 0 0 0 0 0 0 0 127 0" result="hardAlpha"/>
<feOffset dx="2" dy="2"/>
<feGaussianBlur stdDeviation="10"/>
<feComposite in2="hardAlpha" operator="out"/>
<feColorMatrix type="matrix" values="0 0 0 0 0.541667 0 0 0 0 0.78 0 0 0 0 1 0 0 0 0.5 0"/>
<feBlend mode="normal" in2="BackgroundImageFix" result="effect1_dropShadow_40_142"/>
<feBlend mode="normal" in="SourceGraphic" in2="effect1_dropShadow_40_142" result="shape"/>
</filter>
<filter id="filter9_d_40_142" x="93" y="34.5" width="43" height="43" filterUnits="userSpaceOnUse" color-interpolation-filters="sRGB">
<feFlood flood-opacity="0" result="BackgroundImageFix"/>
<feColorMatrix in="SourceAlpha" type="matrix" values="0 0 0 0 0 0 0 0 0 0 0 0 0 0 0 0 0 0 127 0" result="hardAlpha"/>
<feOffset dx="2" dy="2"/>
<feGaussianBlur stdDeviation="10"/>
<feComposite in2="hardAlpha" operator="out"/>
<feColorMatrix type="matrix" values="0 0 0 0 0.541667 0 0 0 0 0.78 0 0 0 0 1 0 0 0 0.5 0"/>
<feBlend mode="normal" in2="BackgroundImageFix" result="effect1_dropShadow_40_142"/>
<feBlend mode="normal" in="SourceGraphic" in2="effect1_dropShadow_40_142" result="shape"/>
</filter>
<filter id="filter10_d_40_142" x="103" y="34.5" width="43" height="43" filterUnits="userSpaceOnUse" color-interpolation-filters="sRGB">
<feFlood flood-opacity="0" result="BackgroundImageFix"/>
<feColorMatrix in="SourceAlpha" type="matrix" values="0 0 0 0 0 0 0 0 0 0 0 0 0 0 0 0 0 0 127 0" result="hardAlpha"/>
<feOffset dx="2" dy="2"/>
<feGaussianBlur stdDeviation="10"/>
<feComposite in2="hardAlpha" operator="out"/>
<feColorMatrix type="matrix" values="0 0 0 0 0.541667 0 0 0 0 0.78 0 0 0 0 1 0 0 0 0.5 0"/>
<feBlend mode="normal" in2="BackgroundImageFix" result="effect1_dropShadow_40_142"/>
<feBlend mode="normal" in="SourceGraphic" in2="effect1_dropShadow_40_142" result="shape"/>
</filter>
<filter id="filter11_d_40_142" x="112" y="34.5" width="43" height="43" filterUnits="userSpaceOnUse" color-interpolation-filters="sRGB">
<feFlood flood-opacity="0" result="BackgroundImageFix"/>
<feColorMatrix in="SourceAlpha" type="matrix" values="0 0 0 0 0 0 0 0 0 0 0 0 0 0 0 0 0 0 127 0" result="hardAlpha"/>
<feOffset dx="2" dy="2"/>
<feGaussianBlur stdDeviation="10"/>
<feComposite in2="hardAlpha" operator="out"/>
<feColorMatrix type="matrix" values="0 0 0 0 0.541667 0 0 0 0 0.78 0 0 0 0 1 0 0 0 0.5 0"/>
<feBlend mode="normal" in2="BackgroundImageFix" result="effect1_dropShadow_40_142"/>
<feBlend mode="normal" in="SourceGraphic" in2="effect1_dropShadow_40_142" result="shape"/>
</filter>
<filter id="filter12_d_40_142" x="121" y="34.5" width="42" height="43" filterUnits="userSpaceOnUse" color-interpolation-filters="sRGB">
<feFlood flood-opacity="0" result="BackgroundImageFix"/>
<feColorMatrix in="SourceAlpha" type="matrix" values="0 0 0 0 0 0 0 0 0 0 0 0 0 0 0 0 0 0 127 0" result="hardAlpha"/>
<feOffset dx="2" dy="2"/>
<feGaussianBlur stdDeviation="10"/>
<feComposite in2="hardAlpha" operator="out"/>
<feColorMatrix type="matrix" values="0 0 0 0 0.541667 0 0 0 0 0.78 0 0 0 0 1 0 0 0 0.5 0"/>
<feBlend mode="normal" in2="BackgroundImageFix" result="effect1_dropShadow_40_142"/>
<feBlend mode="normal" in="SourceGraphic" in2="effect1_dropShadow_40_142" result="shape"/>
</filter>
<filter id="filter13_d_40_142" x="2" y="2.5" width="80" height="77" filterUnits="userSpaceOnUse" color-interpolation-filters="sRGB">
<feFlood flood-opacity="0" result="BackgroundImageFix"/>
<feColorMatrix in="SourceAlpha" type="matrix" values="0 0 0 0 0 0 0 0 0 0 0 0 0 0 0 0 0 0 127 0" result="hardAlpha"/>
<feOffset dx="2" dy="2"/>
<feGaussianBlur stdDeviation="10"/>
<feComposite in2="hardAlpha" operator="out"/>
<feColorMatrix type="matrix" values="0 0 0 0 0.541667 0 0 0 0 0.78 0 0 0 0 1 0 0 0 0.5 0"/>
<feBlend mode="normal" in2="BackgroundImageFix" result="effect1_dropShadow_40_142"/>
<feBlend mode="normal" in="SourceGraphic" in2="effect1_dropShadow_40_142" result="shape"/>
</filter>
<filter id="filter14_d_40_142" x="19" y="7.5" width="50" height="45" filterUnits="userSpaceOnUse" color-interpolation-filters="sRGB">
<feFlood flood-opacity="0" result="BackgroundImageFix"/>
<feColorMatrix in="SourceAlpha" type="matrix" values="0 0 0 0 0 0 0 0 0 0 0 0 0 0 0 0 0 0 127 0" result="hardAlpha"/>
<feOffset dx="2" dy="2"/>
<feGaussianBlur stdDeviation="10"/>
<feComposite in2="hardAlpha" operator="out"/>
<feColorMatrix type="matrix" values="0 0 0 0 0.541667 0 0 0 0 0.78 0 0 0 0 1 0 0 0 0.5 0"/>
<feBlend mode="normal" in2="BackgroundImageFix" result="effect1_dropShadow_40_142"/>
<feBlend mode="normal" in="SourceGraphic" in2="effect1_dropShadow_40_142" result="shape"/>
</filter>
<filter id="filter15_d_40_142" x="12" y="11.5" width="66" height="67" filterUnits="userSpaceOnUse" color-interpolation-filters="sRGB">
<feFlood flood-opacity="0" result="BackgroundImageFix"/>
<feColorMatrix in="SourceAlpha" type="matrix" values="0 0 0 0 0 0 0 0 0 0 0 0 0 0 0 0 0 0 127 0" result="hardAlpha"/>
<feOffset dx="2" dy="2"/>
<feGaussianBlur stdDeviation="10"/>
<feComposite in2="hardAlpha" operator="out"/>
<feColorMatrix type="matrix" values="0 0 0 0 0.541667 0 0 0 0 0.78 0 0 0 0 1 0 0 0 0.5 0"/>
<feBlend mode="normal" in2="BackgroundImageFix" result="effect1_dropShadow_40_142"/>
<feBlend mode="normal" in="SourceGraphic" in2="effect1_dropShadow_40_142" result="shape"/>
</filter>
<filter id="filter16_d_40_142" x="19" y="6.5" width="43" height="44" filterUnits="userSpaceOnUse" color-interpolation-filters="sRGB">
<feFlood flood-opacity="0" result="BackgroundImageFix"/>
<feColorMatrix in="SourceAlpha" type="matrix" values="0 0 0 0 0 0 0 0 0 0 0 0 0 0 0 0 0 0 127 0" result="hardAlpha"/>
<feOffset dx="2" dy="2"/>
<feGaussianBlur stdDeviation="10"/>
<feComposite in2="hardAlpha" operator="out"/>
<feColorMatrix type="matrix" values="0 0 0 0 0.541667 0 0 0 0 0.78 0 0 0 0 1 0 0 0 0.5 0"/>
<feBlend mode="normal" in2="BackgroundImageFix" result="effect1_dropShadow_40_142"/>
<feBlend mode="normal" in="SourceGraphic" in2="effect1_dropShadow_40_142" result="shape"/>
</filter>
<filter id="filter17_d_40_142" x="11" y="27.5" width="42" height="43" filterUnits="userSpaceOnUse" color-interpolation-filters="sRGB">
<feFlood flood-opacity="0" result="BackgroundImageFix"/>
<feColorMatrix in="SourceAlpha" type="matrix" values="0 0 0 0 0 0 0 0 0 0 0 0 0 0 0 0 0 0 127 0" result="hardAlpha"/>
<feOffset dx="2" dy="2"/>
<feGaussianBlur stdDeviation="10"/>
<feComposite in2="hardAlpha" operator="out"/>
<feColorMatrix type="matrix" values="0 0 0 0 0.541667 0 0 0 0 0.78 0 0 0 0 1 0 0 0 0.5 0"/>
<feBlend mode="normal" in2="BackgroundImageFix" result="effect1_dropShadow_40_142"/>
<feBlend mode="normal" in="SourceGraphic" in2="effect1_dropShadow_40_142" result="shape"/>
</filter>
<filter id="filter18_d_40_142" x="0" y="0.5" width="86" height="83" filterUnits="userSpaceOnUse" color-interpolation-filters="sRGB">
<feFlood flood-opacity="0" result="BackgroundImageFix"/>
<feColorMatrix in="SourceAlpha" type="matrix" values="0 0 0 0 0 0 0 0 0 0 0 0 0 0 0 0 0 0 127 0" result="hardAlpha"/>
<feOffset dx="2" dy="2"/>
<feGaussianBlur stdDeviation="10"/>
<feComposite in2="hardAlpha" operator="out"/>
<feColorMatrix type="matrix" values="0 0 0 0 0.541667 0 0 0 0 0.78 0 0 0 0 1 0 0 0 0.5 0"/>
<feBlend mode="normal" in2="BackgroundImageFix" result="effect1_dropShadow_40_142"/>
<feBlend mode="normal" in="SourceGraphic" in2="effect1_dropShadow_40_142" result="shape"/>
</filter>
<filter id="filter19_d_40_142" x="14" y="12.5" width="46" height="48" filterUnits="userSpaceOnUse" color-interpolation-filters="sRGB">
<feFlood flood-opacity="0" result="BackgroundImageFix"/>
<feColorMatrix in="SourceAlpha" type="matrix" values="0 0 0 0 0 0 0 0 0 0 0 0 0 0 0 0 0 0 127 0" result="hardAlpha"/>
<feOffset dx="2" dy="2"/>
<feGaussianBlur stdDeviation="10"/>
<feComposite in2="hardAlpha" operator="out"/>
<feColorMatrix type="matrix" values="0 0 0 0 0.541667 0 0 0 0 0.78 0 0 0 0 1 0 0 0 0.5 0"/>
<feBlend mode="normal" in2="BackgroundImageFix" result="effect1_dropShadow_40_142"/>
<feBlend mode="normal" in="SourceGraphic" in2="effect1_dropShadow_40_142" result="shape"/>
</filter>
<filter id="filter20_d_40_142" x="16" y="15.5" width="43" height="43" filterUnits="userSpaceOnUse" color-interpolation-filters="sRGB">
<feFlood flood-opacity="0" result="BackgroundImageFix"/>
<feColorMatrix in="SourceAlpha" type="matrix" values="0 0 0 0 0 0 0 0 0 0 0 0 0 0 0 0 0 0 127 0" result="hardAlpha"/>
<feOffset dx="2" dy="2"/>
<feGaussianBlur stdDeviation="10"/>
<feComposite in2="hardAlpha" operator="out"/>
<feColorMatrix type="matrix" values="0 0 0 0 0.541667 0 0 0 0 0.78 0 0 0 0 1 0 0 0 0.5 0"/>
<feBlend mode="normal" in2="BackgroundImageFix" result="effect1_dropShadow_40_142"/>
<feBlend mode="normal" in="SourceGraphic" in2="effect1_dropShadow_40_142" result="shape"/>
</filter>
<filter id="filter21_d_40_142" x="39" y="18.5" width="44" height="58" filterUnits="userSpaceOnUse" color-interpolation-filters="sRGB">
<feFlood flood-opacity="0" result="BackgroundImageFix"/>
<feColorMatrix in="SourceAlpha" type="matrix" values="0 0 0 0 0 0 0 0 0 0 0 0 0 0 0 0 0 0 127 0" result="hardAlpha"/>
<feOffset dx="2" dy="2"/>
<feGaussianBlur stdDeviation="10"/>
<feComposite in2="hardAlpha" operator="out"/>
<feColorMatrix type="matrix" values="0 0 0 0 0.541667 0 0 0 0 0.78 0 0 0 0 1 0 0 0 0.5 0"/>
<feBlend mode="normal" in2="BackgroundImageFix" result="effect1_dropShadow_40_142"/>
<feBlend mode="normal" in="SourceGraphic" in2="effect1_dropShadow_40_142" result="shape"/>
</filter>
<filter id="filter22_d_40_142" x="24" y="6.5" width="61" height="56" filterUnits="userSpaceOnUse" color-interpolation-filters="sRGB">
<feFlood flood-opacity="0" result="BackgroundImageFix"/>
<feColorMatrix in="SourceAlpha" type="matrix" values="0 0 0 0 0 0 0 0 0 0 0 0 0 0 0 0 0 0 127 0" result="hardAlpha"/>
<feOffset dx="2" dy="2"/>
<feGaussianBlur stdDeviation="10"/>
<feComposite in2="hardAlpha" operator="out"/>
<feColorMatrix type="matrix" values="0 0 0 0 0.541667 0 0 0 0 0.78 0 0 0 0 1 0 0 0 0.5 0"/>
<feBlend mode="normal" in2="BackgroundImageFix" result="effect1_dropShadow_40_142"/>
<feBlend mode="normal" in="SourceGraphic" in2="effect1_dropShadow_40_142" result="shape"/>
</filter>
<filter id="filter23_d_40_142" x="17" y="1.5" width="57" height="46" filterUnits="userSpaceOnUse" color-interpolation-filters="sRGB">
<feFlood flood-opacity="0" result="BackgroundImageFix"/>
<feColorMatrix in="SourceAlpha" type="matrix" values="0 0 0 0 0 0 0 0 0 0 0 0 0 0 0 0 0 0 127 0" result="hardAlpha"/>
<feOffset dx="2" dy="2"/>
<feGaussianBlur stdDeviation="10"/>
<feComposite in2="hardAlpha" operator="out"/>
<feColorMatrix type="matrix" values="0 0 0 0 0.541667 0 0 0 0 0.78 0 0 0 0 1 0 0 0 0.5 0"/>
<feBlend mode="normal" in2="BackgroundImageFix" result="effect1_dropShadow_40_142"/>
<feBlend mode="normal" in="SourceGraphic" in2="effect1_dropShadow_40_142" result="shape"/>
</filter>
<filter id="filter24_d_40_142" x="10" y="5.5" width="43" height="46" filterUnits="userSpaceOnUse" color-interpolation-filters="sRGB">
<feFlood flood-opacity="0" result="BackgroundImageFix"/>
<feColorMatrix in="SourceAlpha" type="matrix" values="0 0 0 0 0 0 0 0 0 0 0 0 0 0 0 0 0 0 127 0" result="hardAlpha"/>
<feOffset dx="2" dy="2"/>
<feGaussianBlur stdDeviation="10"/>
<feComposite in2="hardAlpha" operator="out"/>
<feColorMatrix type="matrix" values="0 0 0 0 0.541667 0 0 0 0 0.78 0 0 0 0 1 0 0 0 0.5 0"/>
<feBlend mode="normal" in2="BackgroundImageFix" result="effect1_dropShadow_40_142"/>
<feBlend mode="normal" in="SourceGraphic" in2="effect1_dropShadow_40_142" result="shape"/>
</filter>
<filter id="filter25_d_40_142" x="14" y="1.5" width="44" height="47" filterUnits="userSpaceOnUse" color-interpolation-filters="sRGB">
<feFlood flood-opacity="0" result="BackgroundImageFix"/>
<feColorMatrix in="SourceAlpha" type="matrix" values="0 0 0 0 0 0 0 0 0 0 0 0 0 0 0 0 0 0 127 0" result="hardAlpha"/>
<feOffset dx="2" dy="2"/>
<feGaussianBlur stdDeviation="10"/>
<feComposite in2="hardAlpha" operator="out"/>
<feColorMatrix type="matrix" values="0 0 0 0 0.541667 0 0 0 0 0.78 0 0 0 0 1 0 0 0 0.5 0"/>
<feBlend mode="normal" in2="BackgroundImageFix" result="effect1_dropShadow_40_142"/>
<feBlend mode="normal" in="SourceGraphic" in2="effect1_dropShadow_40_142" result="shape"/>
</filter>
<filter id="filter26_d_40_142" x="6" y="9.5" width="46" height="43" filterUnits="userSpaceOnUse" color-interpolation-filters="sRGB">
<feFlood flood-opacity="0" result="BackgroundImageFix"/>
<feColorMatrix in="SourceAlpha" type="matrix" values="0 0 0 0 0 0 0 0 0 0 0 0 0 0 0 0 0 0 127 0" result="hardAlpha"/>
<feOffset dx="2" dy="2"/>
<feGaussianBlur stdDeviation="10"/>
<feComposite in2="hardAlpha" operator="out"/>
<feColorMatrix type="matrix" values="0 0 0 0 0.541667 0 0 0 0 0.78 0 0 0 0 1 0 0 0 0.5 0"/>
<feBlend mode="normal" in2="BackgroundImageFix" result="effect1_dropShadow_40_142"/>
<feBlend mode="normal" in="SourceGraphic" in2="effect1_dropShadow_40_142" result="shape"/>
</filter>
</defs>
</svg>
