<svg width="61" height="55" viewBox="0 0 61 55" fill="none" xmlns="http://www.w3.org/2000/svg">
<path fill-rule="evenodd" clip-rule="evenodd" d="M3.16875 2.23342L5.4044 4.46684H31.2642H57.124L59.0285 2.23342L60.9331 0H30.9331H0.933105L3.16875 2.23342ZM8.82267 8.41504L11.0158 10.8743L16.9421 10.8966L22.8684 10.919L23.0172 14.4165L23.1661 17.9135L27.2161 13.065C29.4437 10.3978 31.6814 7.70729 32.1891 7.0859L33.1115 5.95579H19.8708H6.62955L8.82267 8.41504ZM34.3038 13.1199C30.7833 17.3688 31.0192 15.8918 31.0242 33.6212C31.0268 42.4928 31.1959 49.9917 31.4004 50.285C31.6049 50.5783 33.1966 51.7596 34.9366 52.909L38.1007 55V35.6248V16.2501H45.0618L52.0229 16.2496L54.2024 13.7685L56.3823 11.287H46.1022H35.8226L34.3038 13.1199ZM26.5722 17.0246L23.3969 20.7882L23.5346 30.3631L23.6723 45.6238L26.5777 47.5808C28.1755 48.6573 29.6027 49.4206 29.7495 49.2772C29.8958 49.1333 29.9555 36.5646 29.8816 28.2955L29.7474 13.2611L26.5722 17.0246Z" fill="white"/>
</svg>
