<svg width="621" height="833" viewBox="0 0 621 833" fill="none" xmlns="http://www.w3.org/2000/svg">
<path fill-rule="evenodd" clip-rule="evenodd" d="M277.005 644.779C222.177 649.329 553.48 854.108 603.51 831.215C665.939 802.649 538.136 483.754 577.331 427.374C615.167 372.948 579.311 296.953 561.161 233.194C544.948 176.239 515.06 126.596 478.46 80.0516C440.222 31.4247 404.673 11.4294 343.506 2.27783C282.021 -6.92126 237.116 13.2863 178.95 35.2405C126.779 54.9316 53.1341 33.6973 21.1004 79.3531C-11.588 125.942 33.6894 189.523 30.8142 246.37C28.3117 295.847 -14.8814 344.551 5.40128 389.747C25.6772 434.927 90.047 435.885 129.368 465.976C173.712 499.911 332.646 640.161 277.005 644.779Z" fill="url(#paint0_linear_2_605)"/>
<defs>
<linearGradient id="paint0_linear_2_605" x1="171.938" y1="833" x2="682.415" y2="206.918" gradientUnits="userSpaceOnUse">
<stop stop-color="#B2FF0F"/>
<stop offset="1" stop-color="#76FFEF"/>
</linearGradient>
</defs>
</svg>
