<svg width="115" height="439" viewBox="0 0 115 439" fill="none" xmlns="http://www.w3.org/2000/svg">
<path fill-rule="evenodd" clip-rule="evenodd" d="M0.769824 372.084C-9.38348 374.084 84.1075 448.059 93.3724 438C104.933 425.449 104.424 212.55 111.682 187.778C118.689 163.864 112.049 130.474 108.688 102.46C105.685 77.435 100.15 55.6232 93.3725 35.1726C86.2915 13.8071 79.7083 5.02161 68.381 1.00067C56.9949 -3.0412 48.6792 5.83749 37.9076 15.4837C28.2465 24.1354 14.6085 14.8056 8.6763 34.8657C2.62289 55.3358 11.0076 83.2718 10.4752 108.249C10.0117 129.988 18.0129 132.642 21.7689 152.5C25.5237 172.351 21.4442 191.517 28.7259 204.738C36.9378 219.649 11.0737 370.055 0.769824 372.084Z" fill="url(#paint0_linear_2_1158)"/>
<defs>
<linearGradient id="paint0_linear_2_1158" x1="31.7769" y1="438.939" x2="231.144" y2="353.179" gradientUnits="userSpaceOnUse">
<stop stop-color="#B2FF0F"/>
<stop offset="1" stop-color="#76FFEF"/>
</linearGradient>
</defs>
</svg>
