<svg width="110" height="408" viewBox="0 0 110 408" fill="none" xmlns="http://www.w3.org/2000/svg">
<path fill-rule="evenodd" clip-rule="evenodd" d="M33.1388 324.5C22.9855 326.499 84.3379 416.474 93.6028 406.415C105.164 393.864 99.6549 212.55 106.913 187.778C113.92 163.864 107.28 130.474 103.919 102.46C100.916 77.435 95.3816 55.6233 88.6037 35.1726C81.5227 13.8072 74.9395 5.02167 63.6122 1.00073C52.226 -3.04114 43.9104 5.83755 33.1388 15.4837C23.4776 24.1355 9.83964 14.8057 3.90748 34.8658C-2.14594 55.3358 6.23878 83.2719 5.70634 108.249C5.24292 129.988 -2.75582 151.387 1.00024 171.245C4.75504 191.096 16.6754 191.517 23.957 204.738C32.1689 219.649 43.4427 322.471 33.1388 324.5Z" fill="url(#paint0_linear_2_1052)"/>
<defs>
<linearGradient id="paint0_linear_2_1052" x1="18.0717" y1="407.2" x2="125.135" y2="400.208" gradientUnits="userSpaceOnUse">
<stop stop-color="#86AFFE"/>
<stop offset="0.507812" stop-color="#A57AFF"/>
<stop offset="1" stop-color="#FB84FF"/>
</linearGradient>
</defs>
</svg>
